<svg width="1500" height="462" viewBox="0 0 1500 462" fill="none" xmlns="http://www.w3.org/2000/svg">
<g clip-path="url(#clip0_2:4)">
<g filter="url(#filter0_d_2:4)">
<rect y="231" width="1500" height="231" fill="#0A0D0A"/>
</g>
<g filter="url(#filter1_di_2:4)">
<rect width="1500" height="231" fill="#A33636"/>
</g>
<g filter="url(#filter2_di_2:4)">
<ellipse cx="750" cy="231.027" rx="500" ry="231.027" fill="#A33636"/>
</g>
<mask id="mask0_2:4" style="mask-type:alpha" maskUnits="userSpaceOnUse" x="250" y="0" width="1000" height="463">
<path d="M1249.5 231.027C1249.5 294.511 1193.79 352.143 1103.34 393.934C1012.94 435.704 888.016 461.554 750 461.554C611.984 461.554 487.059 435.704 396.656 393.934C306.211 352.143 250.5 294.511 250.5 231.027C250.5 167.543 306.211 109.911 396.656 68.1201C487.059 26.3492 611.984 0.5 750 0.5C888.016 0.5 1012.94 26.3492 1103.34 68.1201C1193.79 109.911 1249.5 167.543 1249.5 231.027Z" fill="#A33636" stroke="black"/>
</mask>
<g mask="url(#mask0_2:4)">
<g filter="url(#filter3_i_2:4)">
<path d="M593.022 423.681C615.092 403.307 619.801 393.161 619.396 390.634C617.456 390.149 597.165 409.027 587.262 418.527L586.959 418.224L585.14 420.043L582.715 417.617L580.896 419.133L583.624 422.165C568.83 435.748 564.121 443.186 563.616 445.207C566.526 447.875 570.285 447.329 571.801 446.723C571.074 442.599 580.391 434.494 585.14 430.957L589.081 427.319L592.113 430.654L593.628 429.138L591.203 426.106C592.658 424.409 593.022 423.782 593.022 423.681Z" fill="black" stroke="black"/>
<path d="M367.91 75.035C493.356 -16.9293 600.983 43.413 639.115 85.0796C544.026 183.294 566.013 367.818 588.892 447.803H546.481V408.182C529.964 387.647 506.489 394.789 496.816 400.928V433.852H461.66C468.803 411.084 446.779 336.94 434.874 302.714C438.446 339.767 448.267 373.956 452.731 386.419H430.41C418.803 361.419 401.02 289.321 393.58 256.397C344.919 348.361 369.956 398.882 388.557 412.647H357.307C333.2 405.504 335.358 326.337 339.45 287.647C305.075 201.932 344.1 110.191 367.91 75.035Z" fill="#585C46"/>
<path d="M731.191 48.2494C702.62 30.3922 657.531 67.5946 638.557 88.4279C586.325 46.9101 547.225 71.1288 534.205 88.4279C484.651 41.9993 450.685 35.2285 439.897 37.6467C424.272 151.932 470.217 182.736 495.142 183.852L489.004 225.147C474.718 326.486 494.956 375.258 506.861 386.977C526.95 415.102 574.755 406.508 596.147 398.696C662.664 396.464 666.645 264.209 660.321 198.361L665.343 174.365C709.539 198.026 727.657 100.147 731.191 48.2494Z" fill="#494A35"/>
<ellipse cx="519.696" cy="187.758" rx="21.7634" ry="24.5536" fill="#CFD2C1"/>
<ellipse cx="635.209" cy="189.432" rx="23.4375" ry="25.1116" fill="#C4C4C4"/>
<ellipse cx="524.16" cy="187.758" rx="13.9509" ry="12.2768" fill="#161908"/>
<ellipse cx="633.535" cy="192.222" rx="13.9509" ry="12.2768" fill="#161908"/>
<path d="M522.486 138.651C524.272 76.151 475.239 57.1778 450.499 55.5037C439.785 142.557 475.797 168.785 495.142 171.017C487.106 140.66 510.023 136.791 522.486 138.651Z" fill="#0A0D0A"/>
<path d="M651.392 97.9144C669.696 65.3251 701.801 60.154 715.566 61.6421C715.566 158.963 684.316 168.041 668.691 160.414C643.691 142.557 646.742 111.307 651.392 97.9144Z" fill="#0A0D0A"/>
<path d="M522.486 138.651C524.272 76.151 475.239 57.1778 450.499 55.5037C439.785 142.557 475.797 168.785 495.142 171.017C487.106 140.66 510.023 136.791 522.486 138.651Z" stroke="black"/>
<path d="M651.392 97.9144C669.696 65.3251 701.801 60.154 715.566 61.6421C715.566 158.963 684.316 168.041 668.691 160.414C643.691 142.557 646.742 111.307 651.392 97.9144Z" stroke="black"/>
<path d="M506.303 374.7C524.346 341.032 567.24 295.013 594.472 380.28C582.754 403.532 548.714 434.968 506.303 374.7Z" fill="#0F1201"/>
<path d="M506.303 374.7C524.346 341.032 567.24 295.013 594.472 380.28C582.754 403.532 548.714 434.968 506.303 374.7Z" fill="#ABA68E" fill-opacity="0.5"/>
<path d="M506.303 374.7C524.346 341.032 567.24 295.013 594.472 380.28M506.303 374.7C548.714 434.968 582.754 403.532 594.472 380.28M506.303 374.7C515.975 361.679 547.151 344.566 594.472 380.28" stroke="black"/>
<circle cx="534.205" cy="383.629" r="7.25446" fill="black"/>
<circle cx="562.106" cy="383.629" r="7.25446" fill="black"/>
</g>
<g filter="url(#filter4_d_2:4)">
<path d="M757.968 325.235C757.968 324.739 756.992 324.075 755.04 323.243C754.304 322.923 753.584 322.507 752.88 321.995C752.192 321.467 751.768 320.915 751.608 320.339C751.8 319.187 752.44 318.211 753.528 317.411C754.616 316.611 755.832 316.163 757.176 316.067C757.944 316.403 758.568 316.827 759.048 317.339C759.544 317.835 759.88 318.523 760.056 319.403C760.008 319.659 759.816 319.851 759.48 319.979C759.16 320.091 758.712 320.091 758.136 319.979C758.088 319.019 757.712 318.083 757.008 317.171C756.16 317.411 755.36 317.835 754.608 318.443C753.872 319.051 753.504 319.563 753.504 319.979C753.504 320.427 754.464 321.091 756.384 321.971C757.12 322.307 757.832 322.771 758.52 323.363C759.224 323.939 759.656 324.555 759.816 325.211C759.544 326.459 758.904 327.443 757.896 328.163C756.904 328.883 755.616 329.275 754.032 329.339C753.152 329.083 752.36 328.595 751.656 327.875C750.968 327.155 750.568 326.443 750.456 325.739C750.744 325.307 751.016 325.027 751.272 324.899C751.544 324.755 751.88 324.723 752.28 324.803C752.568 326.307 753.216 327.467 754.224 328.283C755.408 328.043 756.328 327.627 756.984 327.035C757.64 326.443 757.968 325.843 757.968 325.235ZM764.181 320.603L764.277 320.795C766.325 319.067 768.517 317.595 770.853 316.379C771.237 316.443 771.493 316.643 771.621 316.979C771.765 317.315 771.749 317.675 771.573 318.059C768.613 319.243 766.341 320.499 764.757 321.827C766.069 324.355 768.277 326.323 771.381 327.731C771.541 328.019 771.517 328.315 771.309 328.619C771.101 328.907 770.757 329.147 770.277 329.339C769.221 328.731 768.149 327.923 767.061 326.915C765.989 325.891 765.061 324.803 764.277 323.651C763.973 325.251 763.637 327.147 763.269 329.339C762.213 329.435 761.525 329.243 761.205 328.763C762.229 325.291 763.173 320.747 764.037 315.131L763.797 310.571C764.421 309.995 765.197 309.763 766.125 309.875C766.109 311.187 765.661 314.483 764.781 319.763L764.181 320.603ZM776.261 316.379L776.549 310.451C777.109 310.115 777.557 309.915 777.893 309.851C778.245 309.787 778.629 309.851 779.045 310.043L777.653 315.419C777.253 318.987 776.717 323.627 776.045 329.339C774.877 329.451 774.117 329.203 773.765 328.595C774.853 324.339 775.685 320.267 776.261 316.379ZM785.288 316.187C786.696 316.555 787.688 317.227 788.264 318.203C788.84 319.163 789.072 320.307 788.96 321.635C786.272 322.915 783.712 323.811 781.28 324.323C781.376 325.219 781.648 325.963 782.096 326.555C782.544 327.131 783.248 327.595 784.208 327.947C785.936 327.323 787.208 326.627 788.024 325.859C788.344 325.859 788.552 325.931 788.648 326.075C788.744 326.219 788.776 326.483 788.744 326.867C788.424 327.299 787.76 327.779 786.752 328.307C785.744 328.835 784.872 329.179 784.136 329.339C782.552 328.987 781.368 328.283 780.584 327.227C779.8 326.155 779.424 324.875 779.456 323.387C779.472 322.747 779.624 321.955 779.912 321.011C781.288 318.691 783.08 317.083 785.288 316.187ZM781.208 322.931V323.123C783.224 322.611 785.256 321.899 787.304 320.987C787.304 320.075 787.176 319.355 786.92 318.827C786.68 318.299 786.192 317.851 785.456 317.483L785.12 317.555C784.064 318.067 783.152 318.867 782.384 319.955C781.632 321.043 781.24 322.035 781.208 322.931ZM793.77 320.027L794.01 320.195C794.954 318.915 796.106 317.643 797.466 316.379C798.89 316.827 799.922 317.507 800.562 318.419C801.218 319.331 801.626 320.499 801.786 321.923C801.434 323.491 800.738 324.867 799.698 326.051C798.658 327.219 797.21 328.315 795.354 329.339C794.554 329.163 793.794 328.819 793.074 328.307C792.706 331.171 792.274 333.667 791.778 335.795C790.754 335.891 790.066 335.699 789.714 335.219C790.946 330.483 791.978 325.547 792.81 320.411L792.306 316.979C792.978 316.355 793.77 316.107 794.682 316.235C794.762 316.619 794.674 317.491 794.418 318.851L793.77 320.027ZM795.21 327.947C797.69 326.491 799.306 324.467 800.058 321.875C799.898 319.971 799.034 318.707 797.466 318.083C796.026 319.459 794.866 320.731 793.986 321.899C793.81 323.019 793.578 324.667 793.29 326.843C793.786 327.339 794.426 327.707 795.21 327.947ZM815.127 327.251H817.311C818.527 327.251 819.671 327.347 820.743 327.539C821.079 326.883 821.279 326.267 821.343 325.691C822.479 325.451 823.079 325.683 823.143 326.387C822.887 327.571 822.151 328.555 820.935 329.339C820.135 328.923 819.119 328.643 817.887 328.499C816.671 328.339 815.599 328.291 814.671 328.355L814.575 328.475L814.743 328.883C814.519 329.267 813.927 329.419 812.967 329.339C812.775 328.971 812.679 328.563 812.679 328.115C812.679 327.667 812.887 327.211 813.303 326.747C813.719 326.267 814.271 325.755 814.959 325.211C815.647 324.667 816.367 324.099 817.119 323.507C817.887 322.899 818.679 322.163 819.495 321.299C820.327 320.435 821.007 319.555 821.535 318.659L821.391 318.467C819.919 318.499 818.279 318.315 816.471 317.915C816.007 318.603 815.775 319.411 815.775 320.339C814.831 320.563 814.207 320.387 813.903 319.811C814.207 318.051 814.959 316.907 816.159 316.379C818.431 317.083 820.311 317.419 821.799 317.387L822.207 316.379C822.767 316.411 823.167 316.491 823.407 316.619C823.647 316.747 823.847 316.955 824.007 317.243C823.911 318.427 822.839 319.995 820.791 321.947C819.207 323.451 817.871 324.651 816.783 325.547C815.711 326.443 815.119 326.939 815.007 327.035L815.127 327.251ZM831.084 316.187C832.492 316.555 833.484 317.227 834.06 318.203C834.636 319.163 834.868 320.307 834.756 321.635C832.068 322.915 829.508 323.811 827.076 324.323C827.172 325.219 827.444 325.963 827.892 326.555C828.34 327.131 829.044 327.595 830.004 327.947C831.732 327.323 833.004 326.627 833.82 325.859C834.14 325.859 834.348 325.931 834.444 326.075C834.54 326.219 834.572 326.483 834.54 326.867C834.22 327.299 833.556 327.779 832.548 328.307C831.54 328.835 830.668 329.179 829.932 329.339C828.348 328.987 827.164 328.283 826.38 327.227C825.596 326.155 825.22 324.875 825.252 323.387C825.268 322.747 825.42 321.955 825.708 321.011C827.084 318.691 828.876 317.083 831.084 316.187ZM827.004 322.931V323.123C829.02 322.611 831.052 321.899 833.1 320.987C833.1 320.075 832.972 319.355 832.716 318.827C832.476 318.299 831.988 317.851 831.252 317.483L830.916 317.555C829.86 318.067 828.948 318.867 828.18 319.955C827.428 321.043 827.036 322.035 827.004 322.931ZM854.366 325.235C854.366 324.739 853.39 324.075 851.438 323.243C850.702 322.923 849.982 322.507 849.278 321.995C848.59 321.467 848.166 320.915 848.006 320.339C848.198 319.187 848.838 318.211 849.926 317.411C851.014 316.611 852.23 316.163 853.574 316.067C854.342 316.403 854.966 316.827 855.446 317.339C855.942 317.835 856.278 318.523 856.454 319.403C856.406 319.659 856.214 319.851 855.878 319.979C855.558 320.091 855.11 320.091 854.534 319.979C854.486 319.019 854.11 318.083 853.406 317.171C852.558 317.411 851.758 317.835 851.006 318.443C850.27 319.051 849.902 319.563 849.902 319.979C849.902 320.427 850.862 321.091 852.782 321.971C853.518 322.307 854.23 322.771 854.918 323.363C855.622 323.939 856.054 324.555 856.214 325.211C855.942 326.459 855.302 327.443 854.294 328.163C853.302 328.883 852.014 329.275 850.43 329.339C849.55 329.083 848.758 328.595 848.054 327.875C847.366 327.155 846.966 326.443 846.854 325.739C847.142 325.307 847.414 325.027 847.67 324.899C847.942 324.755 848.278 324.723 848.678 324.803C848.966 326.307 849.614 327.467 850.622 328.283C851.806 328.043 852.726 327.627 853.382 327.035C854.038 326.443 854.366 325.843 854.366 325.235ZM861.059 320.027L861.299 320.195C862.243 318.915 863.395 317.643 864.755 316.379C866.179 316.827 867.211 317.507 867.851 318.419C868.507 319.331 868.915 320.499 869.075 321.923C868.723 323.491 868.027 324.867 866.987 326.051C865.947 327.219 864.499 328.315 862.643 329.339C861.843 329.163 861.083 328.819 860.363 328.307C859.995 331.171 859.563 333.667 859.067 335.795C858.043 335.891 857.355 335.699 857.003 335.219C858.235 330.483 859.267 325.547 860.099 320.411L859.595 316.979C860.267 316.355 861.059 316.107 861.971 316.235C862.051 316.619 861.963 317.491 861.707 318.851L861.059 320.027ZM862.499 327.947C864.979 326.491 866.595 324.467 867.347 321.875C867.187 319.971 866.323 318.707 864.755 318.083C863.315 319.459 862.155 320.731 861.275 321.899C861.099 323.019 860.867 324.667 860.579 326.843C861.075 327.339 861.715 327.707 862.499 327.947ZM872.968 320.027L873.256 320.219C874.136 319.067 875.184 317.787 876.4 316.379C877.056 316.475 877.592 316.795 878.008 317.339C878.424 317.867 878.632 318.491 878.632 319.211C877.816 319.819 877.096 319.955 876.472 319.619C876.52 318.883 876.368 318.443 876.016 318.299C875.232 319.195 874.312 320.331 873.256 321.707C872.824 324.555 872.392 327.099 871.96 329.339C870.92 329.435 870.24 329.243 869.92 328.763C870.88 325.451 871.576 322.667 872.008 320.411L871.528 316.979C871.88 316.627 872.232 316.395 872.584 316.283C872.936 316.171 873.368 316.155 873.88 316.235C873.96 316.619 873.872 317.491 873.616 318.851L872.968 320.027ZM881.22 327.251H883.404C884.62 327.251 885.764 327.347 886.836 327.539C887.172 326.883 887.372 326.267 887.436 325.691C888.572 325.451 889.172 325.683 889.236 326.387C888.98 327.571 888.244 328.555 887.028 329.339C886.228 328.923 885.212 328.643 883.98 328.499C882.764 328.339 881.692 328.291 880.764 328.355L880.668 328.475L880.836 328.883C880.612 329.267 880.02 329.419 879.06 329.339C878.868 328.971 878.772 328.563 878.772 328.115C878.772 327.667 878.98 327.211 879.396 326.747C879.812 326.267 880.364 325.755 881.052 325.211C881.74 324.667 882.46 324.099 883.212 323.507C883.98 322.899 884.772 322.163 885.588 321.299C886.42 320.435 887.1 319.555 887.628 318.659L887.484 318.467C886.012 318.499 884.372 318.315 882.564 317.915C882.1 318.603 881.868 319.411 881.868 320.339C880.924 320.563 880.3 320.387 879.996 319.811C880.3 318.051 881.052 316.907 882.252 316.379C884.524 317.083 886.404 317.419 887.892 317.387L888.3 316.379C888.86 316.411 889.26 316.491 889.5 316.619C889.74 316.747 889.94 316.955 890.1 317.243C890.004 318.427 888.932 319.995 886.884 321.947C885.3 323.451 883.964 324.651 882.876 325.547C881.804 326.443 881.212 326.939 881.1 327.035L881.22 327.251ZM896.53 332.867C897.33 332.867 898.114 332.587 898.882 332.027C899.298 331.995 899.514 332.195 899.53 332.627C898.618 333.603 897.482 334.091 896.122 334.091C895.29 334.091 894.57 333.875 893.962 333.443C893.354 333.011 893.05 332.491 893.05 331.883C893.05 330.843 893.69 329.891 894.97 329.027C893.738 328.563 892.818 327.835 892.21 326.843C891.602 325.851 891.314 324.699 891.346 323.387C891.362 322.747 891.514 321.955 891.802 321.011C893.178 318.691 894.97 317.083 897.178 316.187C898.586 316.555 899.578 317.227 900.154 318.203C900.73 319.163 900.962 320.307 900.85 321.635C898.162 322.915 895.602 323.811 893.17 324.323C893.266 325.219 893.538 325.963 893.986 326.555C894.434 327.131 895.138 327.595 896.098 327.947C897.826 327.323 899.098 326.627 899.914 325.859C900.234 325.859 900.442 325.931 900.538 326.075C900.634 326.219 900.666 326.483 900.634 326.867C900.138 327.555 898.978 328.259 897.154 328.979C896.53 329.219 895.946 329.643 895.402 330.251C894.874 330.859 894.546 331.435 894.418 331.979C894.738 332.571 895.442 332.867 896.53 332.867ZM893.098 322.931V323.123C895.114 322.611 897.146 321.899 899.194 320.987C899.194 320.075 899.066 319.355 898.81 318.827C898.57 318.299 898.082 317.851 897.346 317.483L897.01 317.555C895.954 318.067 895.042 318.867 894.274 319.955C893.522 321.043 893.13 322.035 893.098 322.931ZM911.231 317.531L907.319 317.651C907.207 318.723 907.015 320.379 906.743 322.619C906.487 324.843 906.295 326.547 906.167 327.731C907.415 327.379 908.447 326.915 909.263 326.339C909.631 326.323 909.863 326.387 909.959 326.531C910.055 326.675 910.087 326.915 910.055 327.251C909.543 327.699 908.855 328.123 907.991 328.523C907.143 328.907 906.335 329.179 905.567 329.339C904.591 329.131 904.031 328.715 903.887 328.091C905.055 322.779 905.775 319.371 906.047 317.867L903.023 318.443C902.591 317.899 902.607 317.339 903.071 316.763L906.191 316.739L906.167 313.283C907.111 312.627 907.911 312.547 908.567 313.043L907.463 316.571L911.279 315.827C911.503 315.955 911.607 316.187 911.591 316.523C911.591 316.843 911.471 317.179 911.231 317.531ZM917.592 316.187C919 316.555 919.992 317.227 920.568 318.203C921.144 319.163 921.376 320.307 921.264 321.635C918.576 322.915 916.016 323.811 913.584 324.323C913.68 325.219 913.952 325.963 914.4 326.555C914.848 327.131 915.552 327.595 916.512 327.947C918.24 327.323 919.512 326.627 920.328 325.859C920.648 325.859 920.856 325.931 920.952 326.075C921.048 326.219 921.08 326.483 921.048 326.867C920.728 327.299 920.064 327.779 919.056 328.307C918.048 328.835 917.176 329.179 916.44 329.339C914.856 328.987 913.672 328.283 912.888 327.227C912.104 326.155 911.728 324.875 911.76 323.387C911.776 322.747 911.928 321.955 912.216 321.011C913.592 318.691 915.384 317.083 917.592 316.187ZM913.512 322.931V323.123C915.528 322.611 917.56 321.899 919.608 320.987C919.608 320.075 919.48 319.355 919.224 318.827C918.984 318.299 918.496 317.851 917.76 317.483L917.424 317.555C916.368 318.067 915.456 318.867 914.688 319.955C913.936 321.043 913.544 322.035 913.512 322.931ZM931.859 329.339C930.867 329.451 930.155 329.251 929.723 328.739C930.331 325.107 930.963 321.963 931.619 319.307C931.347 318.651 930.923 318.203 930.347 317.963C929.675 318.315 929.051 318.787 928.475 319.379C927.915 319.955 927.195 320.795 926.315 321.899C925.835 324.987 925.419 327.467 925.067 329.339C924.043 329.435 923.355 329.243 923.003 328.763C923.899 325.787 924.603 323.003 925.115 320.411L924.611 316.979C925.283 316.355 926.075 316.107 926.987 316.235C927.067 316.619 926.979 317.491 926.723 318.851L926.075 320.027L926.291 320.195C926.307 320.147 926.427 319.987 926.651 319.715C926.891 319.443 927.099 319.203 927.275 318.995C927.451 318.771 927.571 318.627 927.635 318.563C927.715 318.483 927.843 318.355 928.019 318.179C928.195 317.987 928.331 317.851 928.427 317.771C928.539 317.675 928.683 317.555 928.859 317.411C929.035 317.251 929.195 317.123 929.339 317.027C929.771 316.739 930.131 316.523 930.419 316.379C931.123 316.491 931.723 316.731 932.219 317.099C932.731 317.467 933.091 317.875 933.299 318.323L932.675 319.403L932.891 319.547C934.091 318.123 935.347 317.067 936.659 316.379C937.603 316.555 938.331 316.923 938.843 317.483C939.371 318.027 939.659 318.643 939.707 319.331L938.843 321.467C938.539 324.123 938.315 326.747 938.171 329.339C937.195 329.451 936.491 329.251 936.059 328.739C936.395 326.531 936.939 323.427 937.691 319.427C937.595 318.803 937.259 318.355 936.683 318.083C935.467 318.531 934.203 319.523 932.891 321.059C932.363 322.643 932.019 325.403 931.859 329.339ZM958.687 325.235C958.687 324.739 957.711 324.075 955.759 323.243C955.023 322.923 954.303 322.507 953.599 321.995C952.911 321.467 952.487 320.915 952.327 320.339C952.519 319.187 953.159 318.211 954.247 317.411C955.335 316.611 956.551 316.163 957.895 316.067C958.663 316.403 959.287 316.827 959.767 317.339C960.263 317.835 960.599 318.523 960.775 319.403C960.727 319.659 960.535 319.851 960.199 319.979C959.879 320.091 959.431 320.091 958.855 319.979C958.807 319.019 958.431 318.083 957.727 317.171C956.879 317.411 956.079 317.835 955.327 318.443C954.591 319.051 954.223 319.563 954.223 319.979C954.223 320.427 955.183 321.091 957.103 321.971C957.839 322.307 958.551 322.771 959.239 323.363C959.943 323.939 960.375 324.555 960.535 325.211C960.263 326.459 959.623 327.443 958.615 328.163C957.623 328.883 956.335 329.275 954.751 329.339C953.871 329.083 953.079 328.595 952.375 327.875C951.687 327.155 951.287 326.443 951.175 325.739C951.463 325.307 951.735 325.027 951.991 324.899C952.263 324.755 952.599 324.723 952.999 324.803C953.287 326.307 953.935 327.467 954.943 328.283C956.127 328.043 957.047 327.627 957.703 327.035C958.359 326.443 958.687 325.843 958.687 325.235ZM969.988 323.675V323.627C970.516 320.779 971.052 318.315 971.596 316.235C972.732 316.235 973.492 316.491 973.876 317.003L972.076 320.531C971.724 322.819 971.444 325.755 971.236 329.339C970.26 329.451 969.548 329.251 969.1 328.739L970.276 325.595L969.988 325.355C969.028 326.603 967.844 327.931 966.436 329.339C964.244 329.035 962.94 328.283 962.524 327.083L963.748 322.931C963.988 320.211 964.092 317.979 964.06 316.235C964.556 316.171 964.956 316.195 965.26 316.307C965.564 316.403 965.908 316.627 966.292 316.979C966.036 319.251 965.436 322.483 964.492 326.675C964.7 327.171 965.26 327.555 966.172 327.827C967.772 326.387 969.044 325.003 969.988 323.675ZM977.523 320.027L977.811 320.219C978.691 319.067 979.739 317.787 980.955 316.379C981.611 316.475 982.147 316.795 982.563 317.339C982.979 317.867 983.187 318.491 983.187 319.211C982.371 319.819 981.651 319.955 981.027 319.619C981.075 318.883 980.923 318.443 980.571 318.299C979.787 319.195 978.867 320.331 977.811 321.707C977.379 324.555 976.947 327.099 976.515 329.339C975.475 329.435 974.795 329.243 974.475 328.763C975.435 325.451 976.131 322.667 976.563 320.411L976.083 316.979C976.435 316.627 976.787 316.395 977.139 316.283C977.491 316.171 977.923 316.155 978.435 316.235C978.515 316.619 978.427 317.491 978.171 318.851L977.523 320.027ZM991.559 316.931C992.695 316.275 993.527 316.259 994.055 316.883C993.127 321.779 991.111 325.931 988.007 329.339C987.447 329.339 986.927 329.243 986.447 329.051C985.983 328.843 985.703 328.555 985.607 328.187C985.895 326.203 986.039 324.699 986.039 323.675C986.055 322.651 985.895 321.483 985.559 320.171L983.567 317.699C983.663 317.267 983.903 316.931 984.287 316.691C984.671 316.451 985.127 316.347 985.655 316.379C987.319 318.635 987.935 322.379 987.503 327.611L987.695 327.731C990.047 324.771 991.527 322.059 992.135 319.595L991.559 316.931ZM996.321 320.507L996.249 316.763C996.969 316.459 997.497 316.331 997.833 316.379C998.169 316.427 998.425 316.555 998.601 316.763L997.713 319.883C997.441 322.203 997.121 325.355 996.753 329.339C995.585 329.451 994.825 329.203 994.473 328.595C995.001 326.787 995.617 324.091 996.321 320.507ZM998.937 314.027C998.969 314.379 998.865 314.683 998.625 314.939C998.385 315.179 998.081 315.299 997.713 315.299C997.345 315.299 997.033 315.179 996.777 314.939C996.521 314.683 996.377 314.379 996.345 314.027C996.329 313.659 996.441 313.355 996.681 313.115C996.937 312.875 997.249 312.755 997.617 312.755C997.985 312.755 998.289 312.875 998.529 313.115C998.785 313.355 998.921 313.659 998.937 314.027ZM1007.57 316.931C1008.7 316.275 1009.53 316.259 1010.06 316.883C1009.13 321.779 1007.12 325.931 1004.01 329.339C1003.45 329.339 1002.93 329.243 1002.45 329.051C1001.99 328.843 1001.71 328.555 1001.61 328.187C1001.9 326.203 1002.05 324.699 1002.05 323.675C1002.06 322.651 1001.9 321.483 1001.57 320.171L999.575 317.699C999.671 317.267 999.911 316.931 1000.29 316.691C1000.68 316.451 1001.13 316.347 1001.66 316.379C1003.33 318.635 1003.94 322.379 1003.51 327.611L1003.7 327.731C1006.05 324.771 1007.53 322.059 1008.14 319.595L1007.57 316.931ZM1017.32 325.427L1014.18 329.027C1012.95 329.011 1012 328.651 1011.35 327.947C1010.69 327.243 1010.35 326.267 1010.34 325.019C1010.32 323.755 1010.61 322.443 1011.2 321.083C1011.79 319.707 1012.59 318.579 1013.58 317.699C1014.57 316.819 1015.58 316.379 1016.6 316.379C1017.55 316.795 1018.34 317.571 1018.98 318.707L1019 318.635C1019.05 317.579 1019.18 316.779 1019.39 316.235C1020.52 316.235 1021.28 316.491 1021.67 317.003L1019.87 320.531C1019.58 322.387 1019.27 325.323 1018.95 329.339C1017.87 329.467 1017.05 329.235 1016.51 328.643L1017.59 325.643L1017.32 325.427ZM1012.16 324.995C1012.16 326.211 1012.61 327.083 1013.51 327.611C1014.96 326.171 1016.37 324.811 1017.73 323.531L1018.55 320.003C1018.29 319.459 1018.02 319.019 1017.73 318.683C1017.44 318.347 1017.03 318.003 1016.51 317.651C1015.15 318.211 1014.08 319.155 1013.31 320.483C1012.55 321.795 1012.16 323.299 1012.16 324.995ZM1025.1 316.379L1025.38 310.451C1025.94 310.115 1026.39 309.915 1026.73 309.851C1027.08 309.787 1027.46 309.851 1027.88 310.043L1026.49 315.419C1026.09 318.987 1025.55 323.627 1024.88 329.339C1023.71 329.451 1022.95 329.203 1022.6 328.595C1023.69 324.339 1024.52 320.267 1025.1 316.379ZM1028.2 323.819C1028.2 322.779 1028.53 321.643 1029.2 320.411C1029.88 319.179 1030.69 318.147 1031.65 317.315C1032.63 316.483 1033.52 316.067 1034.32 316.067C1035.12 316.067 1035.98 316.811 1036.91 318.299C1037.84 319.787 1038.31 321.051 1038.32 322.091C1038.36 323.131 1038.02 324.219 1037.32 325.355C1036.63 326.475 1035.78 327.419 1034.77 328.187C1033.78 328.955 1032.88 329.339 1032.08 329.339C1031.28 329.339 1030.44 328.779 1029.54 327.659C1028.64 326.539 1028.2 325.259 1028.2 323.819ZM1034.12 317.411C1032.84 318.131 1031.88 318.979 1031.22 319.955C1030.56 320.915 1030.09 322.051 1029.8 323.363C1029.87 324.435 1030.08 325.347 1030.43 326.099C1030.78 326.851 1031.32 327.539 1032.06 328.163C1033.48 327.555 1034.56 326.787 1035.3 325.859C1036.05 324.931 1036.56 323.763 1036.84 322.355C1036.69 321.507 1036.38 320.627 1035.9 319.715C1035.42 318.803 1034.83 318.035 1034.12 317.411ZM1049.73 327.659L1049.9 327.731C1051.8 325.523 1053.19 322.771 1054.05 319.475L1053.4 316.811C1054.51 316.123 1055.34 316.083 1055.9 316.691C1055.29 321.491 1053.44 325.707 1050.36 329.339C1049.8 329.371 1049.28 329.275 1048.8 329.051C1048.32 328.827 1048.03 328.539 1047.93 328.187C1048.4 325.883 1048.54 323.779 1048.36 321.875L1048.22 321.827C1047.48 324.003 1046.01 326.507 1043.8 329.339C1043.24 329.339 1042.72 329.243 1042.24 329.051C1041.78 328.843 1041.5 328.555 1041.4 328.187C1041.71 326.331 1041.88 324.851 1041.91 323.747C1041.96 322.643 1041.88 321.451 1041.67 320.171L1039.68 317.699C1039.77 317.267 1040.01 316.931 1040.4 316.691C1040.78 316.451 1041.24 316.347 1041.76 316.379C1043.35 318.763 1043.86 322.507 1043.3 327.611L1043.49 327.659C1045.17 325.403 1046.58 322.787 1047.72 319.811L1046.25 317.555C1046.4 317.139 1046.67 316.827 1047.07 316.619C1047.48 316.411 1047.95 316.347 1048.46 316.427C1049.26 318.363 1049.75 320.155 1049.92 321.803C1050.12 323.435 1050.05 325.387 1049.73 327.659ZM1063.41 323.627C1064.06 319.947 1064.61 317.483 1065.06 316.235C1066.2 316.235 1066.95 316.491 1067.32 317.003L1065.33 321.011C1064.94 322.819 1064.49 325.379 1063.96 328.691C1063.45 332.003 1063.13 334.011 1063.02 334.715C1062.75 335.099 1062.29 335.387 1061.63 335.579C1060.99 335.771 1060.35 335.851 1059.71 335.819C1058.62 335.259 1057.75 334.555 1057.09 333.707C1056.45 332.875 1056.08 332.067 1055.97 331.283C1056.24 330.851 1056.55 330.555 1056.9 330.395C1057.27 330.235 1057.61 330.251 1057.91 330.443C1058.04 332.059 1058.77 333.371 1060.12 334.379C1060.57 334.443 1060.89 334.387 1061.08 334.211C1061.64 332.419 1062.13 330.187 1062.54 327.515L1063.48 325.811L1063.19 325.547C1062.77 326.059 1061.87 326.955 1060.48 328.235C1059.04 327.995 1057.99 327.667 1057.33 327.251C1056.68 326.819 1056.26 326.291 1056.09 325.667L1057.26 322.235C1057.36 321.435 1057.42 320.387 1057.45 319.091C1057.5 317.779 1057.5 316.827 1057.45 316.235C1057.95 316.171 1058.35 316.195 1058.65 316.307C1058.97 316.403 1059.32 316.627 1059.69 316.979C1059.46 318.563 1059.25 319.835 1059.06 320.795C1058.87 321.739 1058.52 323.219 1058.01 325.235C1058.18 325.651 1058.41 325.971 1058.7 326.195C1059.01 326.419 1059.49 326.627 1060.17 326.819C1061.67 325.683 1062.75 324.619 1063.41 323.627ZM1075.98 329.339C1074.98 329.451 1074.27 329.251 1073.84 328.739C1074.45 325.107 1075.08 321.963 1075.74 319.307C1075.46 318.651 1075.04 318.203 1074.46 317.963C1073.79 318.315 1073.17 318.787 1072.59 319.379C1072.03 319.955 1071.31 320.795 1070.43 321.899C1069.95 324.987 1069.54 327.467 1069.18 329.339C1068.16 329.435 1067.47 329.243 1067.12 328.763C1068.02 325.787 1068.72 323.003 1069.23 320.411L1068.73 316.979C1069.4 316.355 1070.19 316.107 1071.1 316.235C1071.18 316.619 1071.1 317.491 1070.84 318.851L1070.19 320.027L1070.41 320.195C1070.42 320.147 1070.54 319.987 1070.77 319.715C1071.01 319.443 1071.22 319.203 1071.39 318.995C1071.57 318.771 1071.69 318.627 1071.75 318.563C1071.83 318.483 1071.96 318.355 1072.14 318.179C1072.31 317.987 1072.45 317.851 1072.54 317.771C1072.66 317.675 1072.8 317.555 1072.98 317.411C1073.15 317.251 1073.31 317.123 1073.46 317.027C1073.89 316.739 1074.25 316.523 1074.54 316.379C1075.24 316.491 1075.84 316.731 1076.34 317.099C1076.85 317.467 1077.21 317.875 1077.42 318.323L1076.79 319.403L1077.01 319.547C1078.21 318.123 1079.46 317.067 1080.78 316.379C1081.72 316.555 1082.45 316.923 1082.96 317.483C1083.49 318.027 1083.78 318.643 1083.82 319.331L1082.96 321.467C1082.66 324.123 1082.43 326.747 1082.29 329.339C1081.31 329.451 1080.61 329.251 1080.18 328.739C1080.51 326.531 1081.06 323.427 1081.81 319.427C1081.71 318.803 1081.38 318.355 1080.8 318.083C1079.58 318.531 1078.32 319.523 1077.01 321.059C1076.48 322.643 1076.14 325.403 1075.98 329.339Z" fill="black"/>
</g>
</g>
<path fill-rule="evenodd" clip-rule="evenodd" d="M752.208 191.753V192.713L752.4 200.201V207.881V219.305C752.4 222.121 752.336 223.945 752.208 224.777C752.144 226.377 751.792 227.945 751.152 229.481C750.512 230.825 750.192 231.849 750.192 232.553C750.192 233.577 751.024 234.249 752.688 234.569C754.096 234.825 755.76 235.017 757.68 235.145C759.6 235.209 761.808 235.241 764.304 235.241H766.224C771.28 235.241 775.344 234.729 778.416 233.705C782.192 232.425 785.232 230.697 787.536 228.521C789.904 226.345 791.728 223.977 793.008 221.417C794.288 218.857 795.12 216.233 795.504 213.545C795.952 210.793 796.176 208.265 796.176 205.961L796.272 204.905C796.272 196.265 793.904 189.513 789.168 184.649C784.496 179.721 777.808 177.257 769.104 177.257H766.128C760.56 177.257 756.048 177.545 752.592 178.121C750.864 178.377 750 179.049 750 180.137V180.809C750 180.937 750.352 181.897 751.056 183.689C751.76 185.289 752.112 186.921 752.112 188.585V190.505C752.112 191.017 752.144 191.433 752.208 191.753ZM786.096 204.521V207.401C786.096 210.217 785.776 212.937 785.136 215.561C784.496 218.185 783.44 220.521 781.968 222.569C780.56 224.553 778.704 226.153 776.4 227.369C774.16 228.521 771.44 229.097 768.24 229.097L767.664 229.193C764.976 229.193 763.184 228.905 762.288 228.329C761.456 227.753 761.04 226.793 761.04 225.449L760.944 222.857V221.033L760.848 220.361V213.929L760.944 211.337V196.937C760.944 189.769 761.04 185.801 761.232 185.033C761.616 183.625 763.504 182.921 766.896 182.921H768.72C771.792 182.921 774.416 183.561 776.592 184.841C778.832 186.057 780.656 187.689 782.064 189.737C783.472 191.721 784.496 194.025 785.136 196.649C785.776 199.209 786.096 201.833 786.096 204.521ZM826.959 213.065C833.423 204.105 836.655 198.697 836.655 196.841C836.655 195.881 836.271 195.177 835.503 194.729C834.863 194.345 833.007 194.153 829.935 194.153L824.655 193.961H812.751L811.695 193.865C809.263 193.865 807.663 194.249 806.895 195.017C806.127 195.785 805.743 197.097 805.743 198.953C805.743 200.745 806.575 201.641 808.239 201.641C808.815 201.641 810.191 201.353 812.367 200.777C814.607 200.201 816.719 199.913 818.703 199.913C822.799 199.913 824.847 200.329 824.847 201.161C824.847 201.929 821.583 206.889 815.055 216.041C808.463 225.129 805.167 230.473 805.167 232.073V232.937C805.167 233.961 805.903 234.633 807.375 234.953C807.695 235.017 808.911 235.081 811.023 235.145H820.143H829.743C834.991 235.145 837.615 233.769 837.615 231.017V230.057C837.615 228.009 836.847 226.985 835.311 226.985L829.839 228.521C827.855 229.097 825.263 229.385 822.063 229.385C818.863 229.385 817.263 228.873 817.263 227.849C817.263 227.081 820.495 222.153 826.959 213.065ZM848.355 234.281C849.187 234.921 850.179 235.241 851.331 235.241H853.443C855.363 235.241 856.963 234.889 858.243 234.185C859.523 233.481 860.163 232.553 860.163 231.401C860.163 230.377 859.907 229.353 859.395 228.329C858.051 226.025 857.379 223.241 857.379 219.977L857.091 214.121V204.713C857.091 202.537 857.059 200.809 856.995 199.529C856.995 198.249 856.867 197.289 856.611 196.649C856.419 196.009 856.067 195.593 855.555 195.401C855.043 195.209 854.275 195.113 853.251 195.113H851.811C848.483 195.113 846.819 195.913 846.819 197.513V198.377C846.819 198.441 847.107 199.209 847.683 200.681L848.067 201.545C848.387 202.441 848.611 203.689 848.739 205.289V221.513L848.547 224.681C848.547 225.961 848.323 227.273 847.875 228.617C847.363 230.281 847.107 231.401 847.107 231.977C847.107 232.809 847.523 233.577 848.355 234.281ZM854.211 177.353H852.771C851.235 177.353 850.115 177.769 849.411 178.601C848.707 179.433 848.355 180.169 848.355 180.809L848.163 182.153V182.345L848.355 183.689C848.355 184.521 848.675 185.289 849.315 185.993C850.019 186.633 850.627 186.953 851.139 186.953C851.715 186.953 852.131 186.985 852.387 187.049H853.731L854.499 186.953C855.715 186.953 856.675 186.505 857.379 185.609C858.147 184.713 858.531 183.689 858.531 182.537V181.577C858.531 180.169 858.083 179.113 857.187 178.409C856.355 177.705 855.363 177.353 854.211 177.353ZM885.134 206.441C884.238 207.209 883.598 207.593 883.214 207.593C881.678 207.593 880.91 205.193 880.91 200.393L880.814 195.209V186.569C880.814 182.089 880.59 179.273 880.142 178.121C879.438 176.457 878.062 175.625 876.014 175.625H874.958C873.678 175.625 872.59 175.849 871.694 176.297C870.862 176.809 870.446 177.321 870.446 177.833V178.793C870.446 178.921 870.606 179.529 870.926 180.617C871.054 181.129 871.15 181.673 871.214 182.249C871.342 182.761 871.47 183.369 871.598 184.073C871.79 185.417 871.886 189.129 871.886 195.209V203.561L871.79 206.345V207.785C871.79 208.233 871.758 208.713 871.694 209.225V217.289C871.694 219.081 871.63 220.937 871.502 222.857C871.374 224.713 871.182 226.665 870.926 228.713L870.83 229.673C870.83 232.553 871.95 233.993 874.19 233.993C879.182 233.993 881.678 232.329 881.678 229.001V228.329C881.678 227.945 881.646 227.465 881.582 226.889L881.39 224.681C881.39 222.569 881.71 220.809 882.35 219.401C883.054 217.929 883.886 217.193 884.846 217.193C886.19 217.193 888.43 219.689 891.566 224.681C893.038 226.985 894.19 228.809 895.022 230.153C895.918 231.433 896.686 232.393 897.326 233.033C897.966 233.609 898.574 233.961 899.15 234.089C899.79 234.217 900.59 234.281 901.55 234.281H902.51C905.006 234.281 906.254 233.705 906.254 232.553L899.534 223.145C894.99 216.873 892.718 213.321 892.718 212.489C892.718 210.761 894.51 207.817 898.094 203.657C901.678 199.625 903.47 197.417 903.47 197.033C903.47 195.625 901.902 194.921 898.766 194.921C897.23 194.921 896.078 195.209 895.31 195.785C894.542 196.297 893.71 197.161 892.814 198.377C892.43 198.889 891.758 199.657 890.798 200.681C889.902 201.641 888.942 202.665 887.918 203.753C886.958 204.777 886.03 205.673 885.134 206.441ZM951.348 215.369V213.929C951.348 212.199 951.181 210.524 950.847 208.905L942.005 216.927L941.94 217.577C941.94 221.353 941.044 224.457 939.252 226.889C937.46 229.321 935.156 230.537 932.34 230.537H931.572C930.346 230.537 929.179 230.214 928.071 229.569L923.033 234.14C923.311 234.288 923.598 234.431 923.892 234.569C926.196 235.657 928.564 236.201 930.996 236.201H932.436C935.124 236.201 937.844 235.529 940.596 234.185C944.308 232.457 947.028 229.865 948.756 226.409C950.484 222.953 951.348 219.273 951.348 215.369ZM917.116 228.706C916.53 227.801 916.036 226.875 915.636 225.929C914.996 224.265 914.548 222.601 914.292 220.937C914.1 219.273 914.004 217.769 914.004 216.425V214.313C914.004 212.393 914.196 210.505 914.58 208.649C915.028 206.729 915.668 204.969 916.5 203.369C917.332 201.705 918.42 200.201 919.764 198.857C921.108 197.513 922.708 196.425 924.564 195.593C926.996 194.441 929.428 193.865 931.86 193.865H933.972C936.852 193.865 939.38 194.441 941.556 195.593C943.732 196.681 945.524 198.153 946.932 200.009C947.186 200.329 947.428 200.658 947.659 200.995L941.17 206.882C940.767 205.555 940.224 204.352 939.54 203.273C937.94 200.585 935.732 199.241 932.916 199.241H932.052C929.3 199.241 926.996 200.585 925.14 203.273C923.284 205.961 922.356 209.545 922.356 214.025V216.905C922.42 217.225 922.452 217.513 922.452 217.769V218.249C922.452 219.785 922.676 221.289 923.124 222.761C923.168 222.886 923.212 223.011 923.258 223.134L917.116 228.706Z" fill="black"/>
<path d="M911.825 244.526L910.847 245.637C907.158 244.41 905.87 241.587 905.687 240.328C906.062 239.793 906.999 239.119 907.421 238.849C908.482 236.879 910.576 238.332 911.491 239.305C914.88 242.556 913.125 244.14 911.825 244.526Z" fill="#B79D53"/>
<path d="M888.449 263.665C884.877 266.829 881.329 268.088 880.002 268.323C881.668 264.462 884.347 261.69 885.478 260.787C886.377 262.693 887.833 263.5 888.449 263.665Z" fill="#D4A27B"/>
<path d="M892.238 260.533L888.355 263.799C886.813 263.039 885.656 261.577 885.27 260.941C885.822 259.811 888.548 257.351 889.842 256.263C889.73 255.626 889.916 255.35 890.023 255.292L905.687 240.328C906.356 243.589 909.406 245.226 910.847 245.637L894.433 259.677C894.632 259.736 893.052 260.272 892.238 260.533Z" fill="#B79D53"/>
</g>
<defs>
<filter id="filter0_d_2:4" x="0" y="231" width="1510" height="239" filterUnits="userSpaceOnUse" color-interpolation-filters="sRGB">
<feFlood flood-opacity="0" result="BackgroundImageFix"/>
<feColorMatrix in="SourceAlpha" type="matrix" values="0 0 0 0 0 0 0 0 0 0 0 0 0 0 0 0 0 0 127 0" result="hardAlpha"/>
<feOffset dx="6" dy="4"/>
<feGaussianBlur stdDeviation="2"/>
<feComposite in2="hardAlpha" operator="out"/>
<feColorMatrix type="matrix" values="0 0 0 0 0 0 0 0 0 0 0 0 0 0 0 0 0 0 0.25 0"/>
<feBlend mode="normal" in2="BackgroundImageFix" result="effect1_dropShadow_2:4"/>
<feBlend mode="normal" in="SourceGraphic" in2="effect1_dropShadow_2:4" result="shape"/>
</filter>
<filter id="filter1_di_2:4" x="0" y="0" width="1510" height="239" filterUnits="userSpaceOnUse" color-interpolation-filters="sRGB">
<feFlood flood-opacity="0" result="BackgroundImageFix"/>
<feColorMatrix in="SourceAlpha" type="matrix" values="0 0 0 0 0 0 0 0 0 0 0 0 0 0 0 0 0 0 127 0" result="hardAlpha"/>
<feOffset dx="6" dy="4"/>
<feGaussianBlur stdDeviation="2"/>
<feComposite in2="hardAlpha" operator="out"/>
<feColorMatrix type="matrix" values="0 0 0 0 0 0 0 0 0 0 0 0 0 0 0 0 0 0 0.25 0"/>
<feBlend mode="normal" in2="BackgroundImageFix" result="effect1_dropShadow_2:4"/>
<feBlend mode="normal" in="SourceGraphic" in2="effect1_dropShadow_2:4" result="shape"/>
<feColorMatrix in="SourceAlpha" type="matrix" values="0 0 0 0 0 0 0 0 0 0 0 0 0 0 0 0 0 0 127 0" result="hardAlpha"/>
<feOffset dx="6" dy="4"/>
<feGaussianBlur stdDeviation="2"/>
<feComposite in2="hardAlpha" operator="arithmetic" k2="-1" k3="1"/>
<feColorMatrix type="matrix" values="0 0 0 0 0 0 0 0 0 0 0 0 0 0 0 0 0 0 0.25 0"/>
<feBlend mode="normal" in2="shape" result="effect2_innerShadow_2:4"/>
</filter>
<filter id="filter2_di_2:4" x="250" y="0" width="1010" height="470.054" filterUnits="userSpaceOnUse" color-interpolation-filters="sRGB">
<feFlood flood-opacity="0" result="BackgroundImageFix"/>
<feColorMatrix in="SourceAlpha" type="matrix" values="0 0 0 0 0 0 0 0 0 0 0 0 0 0 0 0 0 0 127 0" result="hardAlpha"/>
<feOffset dx="6" dy="4"/>
<feGaussianBlur stdDeviation="2"/>
<feComposite in2="hardAlpha" operator="out"/>
<feColorMatrix type="matrix" values="0 0 0 0 0 0 0 0 0 0 0 0 0 0 0 0 0 0 0.25 0"/>
<feBlend mode="normal" in2="BackgroundImageFix" result="effect1_dropShadow_2:4"/>
<feBlend mode="normal" in="SourceGraphic" in2="effect1_dropShadow_2:4" result="shape"/>
<feColorMatrix in="SourceAlpha" type="matrix" values="0 0 0 0 0 0 0 0 0 0 0 0 0 0 0 0 0 0 127 0" result="hardAlpha"/>
<feOffset dx="6" dy="4"/>
<feGaussianBlur stdDeviation="2"/>
<feComposite in2="hardAlpha" operator="arithmetic" k2="-1" k3="1"/>
<feColorMatrix type="matrix" values="0 0 0 0 0 0 0 0 0 0 0 0 0 0 0 0 0 0 0.25 0"/>
<feBlend mode="normal" in2="shape" result="effect2_innerShadow_2:4"/>
</filter>
<filter id="filter3_i_2:4" x="325.893" y="26.7858" width="409.298" height="425.017" filterUnits="userSpaceOnUse" color-interpolation-filters="sRGB">
<feFlood flood-opacity="0" result="BackgroundImageFix"/>
<feBlend mode="normal" in="SourceGraphic" in2="BackgroundImageFix" result="shape"/>
<feColorMatrix in="SourceAlpha" type="matrix" values="0 0 0 0 0 0 0 0 0 0 0 0 0 0 0 0 0 0 127 0" result="hardAlpha"/>
<feOffset dx="6" dy="4"/>
<feGaussianBlur stdDeviation="2"/>
<feComposite in2="hardAlpha" operator="arithmetic" k2="-1" k3="1"/>
<feColorMatrix type="matrix" values="0 0 0 0 0 0 0 0 0 0 0 0 0 0 0 0 0 0 0.25 0"/>
<feBlend mode="normal" in2="shape" result="effect1_innerShadow_2:4"/>
</filter>
<filter id="filter4_d_2:4" x="750.456" y="309.827" width="343.368" height="33.9989" filterUnits="userSpaceOnUse" color-interpolation-filters="sRGB">
<feFlood flood-opacity="0" result="BackgroundImageFix"/>
<feColorMatrix in="SourceAlpha" type="matrix" values="0 0 0 0 0 0 0 0 0 0 0 0 0 0 0 0 0 0 127 0" result="hardAlpha"/>
<feOffset dx="6" dy="4"/>
<feGaussianBlur stdDeviation="2"/>
<feComposite in2="hardAlpha" operator="out"/>
<feColorMatrix type="matrix" values="0 0 0 0 0 0 0 0 0 0 0 0 0 0 0 0 0 0 0.25 0"/>
<feBlend mode="normal" in2="BackgroundImageFix" result="effect1_dropShadow_2:4"/>
<feBlend mode="normal" in="SourceGraphic" in2="effect1_dropShadow_2:4" result="shape"/>
</filter>
<clipPath id="clip0_2:4">
<rect width="1500" height="462" fill="white"/>
</clipPath>
</defs>
</svg>
