<svg width="1000" height="694" viewBox="0 0 1000 694" fill="none" xmlns="http://www.w3.org/2000/svg">
<g clip-path="url(#clip0_121:2)">
<g filter="url(#filter0_di_121:2)">
<ellipse cx="500" cy="347.027" rx="500" ry="231.027" fill="#A33636"/>
</g>
<mask id="mask0_121:2" style="mask-type:alpha" maskUnits="userSpaceOnUse" x="0" y="116" width="1000" height="463">
<path d="M999.5 347.027C999.5 410.511 943.789 468.143 853.344 509.934C762.941 551.704 638.016 577.554 500 577.554C361.984 577.554 237.059 551.704 146.656 509.934C56.2113 468.143 0.5 410.511 0.5 347.027C0.5 283.543 56.2113 225.911 146.656 184.12C237.059 142.349 361.984 116.5 500 116.5C638.016 116.5 762.941 142.349 853.344 184.12C943.789 225.911 999.5 283.543 999.5 347.027Z" fill="#A33636" stroke="black"/>
</mask>
<g mask="url(#mask0_121:2)">
<g filter="url(#filter1_i_121:2)">
<path d="M343.022 539.681C365.092 519.307 369.801 509.161 369.396 506.634C367.456 506.149 347.165 525.027 337.262 534.527L336.959 534.224L335.14 536.043L332.715 533.617L330.896 535.133L333.624 538.165C318.83 551.748 314.121 559.186 313.616 561.207C316.526 563.875 320.285 563.329 321.801 562.723C321.074 558.599 330.39 550.494 335.14 546.957L339.081 543.319L342.112 546.654L343.628 545.138L341.203 542.106C342.658 540.409 343.022 539.782 343.022 539.681Z" fill="black" stroke="black"/>
<path d="M117.91 191.035C243.356 99.0707 350.983 159.413 389.115 201.08C294.026 299.294 316.013 483.818 338.892 563.803H296.481V524.182C279.964 503.647 256.489 510.789 246.816 516.928V549.852H211.66C218.803 527.084 196.779 452.94 184.874 418.714C188.446 455.767 198.267 489.956 202.731 502.419H180.41C168.803 477.419 151.02 405.321 143.58 372.397C94.9189 464.361 119.956 514.882 138.557 528.647H107.307C83.2001 521.504 85.3579 442.337 89.4501 403.647C55.0751 317.932 94.1004 226.191 117.91 191.035Z" fill="#585C46"/>
<path d="M481.191 164.249C452.62 146.392 407.531 183.595 388.557 204.428C336.325 162.91 297.225 187.129 284.205 204.428C234.651 157.999 200.685 151.229 189.897 153.647C174.272 267.932 220.216 298.736 245.142 299.852L239.004 341.147C224.718 442.486 244.956 491.258 256.861 502.977C276.95 531.102 324.755 522.508 346.147 514.696C412.664 512.464 416.645 380.209 410.321 314.361L415.343 290.365C459.539 314.026 477.657 216.147 481.191 164.249Z" fill="#494A35"/>
<ellipse cx="269.696" cy="303.758" rx="21.7634" ry="24.5536" fill="#CFD2C1"/>
<ellipse cx="385.209" cy="305.432" rx="23.4375" ry="25.1116" fill="#C4C4C4"/>
<ellipse cx="274.16" cy="303.758" rx="13.9509" ry="12.2768" fill="#161908"/>
<ellipse cx="383.535" cy="308.222" rx="13.9509" ry="12.2768" fill="#161908"/>
<path d="M272.486 254.651C274.271 192.151 225.239 173.178 200.499 171.504C189.785 258.557 225.797 284.785 245.142 287.017C237.106 256.66 260.023 252.791 272.486 254.651Z" fill="#0A0D0A"/>
<path d="M401.392 213.914C419.696 181.325 451.801 176.154 465.566 177.642C465.566 274.963 434.316 284.041 418.691 276.414C393.691 258.557 396.742 227.307 401.392 213.914Z" fill="#0A0D0A"/>
<path d="M272.486 254.651C274.271 192.151 225.239 173.178 200.499 171.504C189.785 258.557 225.797 284.785 245.142 287.017C237.106 256.66 260.023 252.791 272.486 254.651Z" stroke="black"/>
<path d="M401.392 213.914C419.696 181.325 451.801 176.154 465.566 177.642C465.566 274.963 434.316 284.041 418.691 276.414C393.691 258.557 396.742 227.307 401.392 213.914Z" stroke="black"/>
<path d="M256.303 490.7C274.346 457.032 317.24 411.013 344.472 496.28C332.754 519.532 298.713 550.968 256.303 490.7Z" fill="#0F1201"/>
<path d="M256.303 490.7C274.346 457.032 317.24 411.013 344.472 496.28C332.754 519.532 298.713 550.968 256.303 490.7Z" fill="#ABA68E" fill-opacity="0.5"/>
<path d="M256.303 490.7C274.346 457.032 317.24 411.013 344.472 496.28M256.303 490.7C298.713 550.968 332.754 519.532 344.472 496.28M256.303 490.7C265.975 477.679 297.151 460.566 344.472 496.28" stroke="black"/>
<circle cx="284.205" cy="499.629" r="7.25446" fill="black"/>
<circle cx="312.106" cy="499.629" r="7.25446" fill="black"/>
</g>
<g filter="url(#filter2_d_121:2)">
<path d="M507.968 441.235C507.968 440.739 506.992 440.075 505.04 439.243C504.304 438.923 503.584 438.507 502.88 437.995C502.192 437.467 501.768 436.915 501.608 436.339C501.8 435.187 502.44 434.211 503.528 433.411C504.616 432.611 505.832 432.163 507.176 432.067C507.944 432.403 508.568 432.827 509.048 433.339C509.544 433.835 509.88 434.523 510.056 435.403C510.008 435.659 509.816 435.851 509.48 435.979C509.16 436.091 508.712 436.091 508.136 435.979C508.088 435.019 507.712 434.083 507.008 433.171C506.16 433.411 505.36 433.835 504.608 434.443C503.872 435.051 503.504 435.563 503.504 435.979C503.504 436.427 504.464 437.091 506.384 437.971C507.12 438.307 507.832 438.771 508.52 439.363C509.224 439.939 509.656 440.555 509.816 441.211C509.544 442.459 508.904 443.443 507.896 444.163C506.904 444.883 505.616 445.275 504.032 445.339C503.152 445.083 502.36 444.595 501.656 443.875C500.968 443.155 500.568 442.443 500.456 441.739C500.744 441.307 501.016 441.027 501.272 440.899C501.544 440.755 501.88 440.723 502.28 440.803C502.568 442.307 503.216 443.467 504.224 444.283C505.408 444.043 506.328 443.627 506.984 443.035C507.64 442.443 507.968 441.843 507.968 441.235ZM513.869 443.251H516.053C517.269 443.251 518.413 443.347 519.485 443.539C519.821 442.883 520.021 442.267 520.085 441.691C521.221 441.451 521.821 441.683 521.885 442.387C521.629 443.571 520.893 444.555 519.677 445.339C518.877 444.923 517.861 444.643 516.629 444.499C515.413 444.339 514.341 444.291 513.413 444.355L513.317 444.475L513.485 444.883C513.261 445.267 512.669 445.419 511.709 445.339C511.517 444.971 511.421 444.563 511.421 444.115C511.421 443.667 511.629 443.211 512.045 442.747C512.461 442.267 513.013 441.755 513.701 441.211C514.389 440.667 515.109 440.099 515.861 439.507C516.629 438.899 517.421 438.163 518.237 437.299C519.069 436.435 519.749 435.555 520.277 434.659L520.133 434.467C518.661 434.499 517.021 434.315 515.213 433.915C514.749 434.603 514.517 435.411 514.517 436.339C513.573 436.563 512.949 436.387 512.645 435.811C512.949 434.051 513.701 432.907 514.901 432.379C517.173 433.083 519.053 433.419 520.541 433.387L520.949 432.379C521.509 432.411 521.909 432.491 522.149 432.619C522.389 432.747 522.589 432.955 522.749 433.243C522.653 434.427 521.581 435.995 519.533 437.947C517.949 439.451 516.613 440.651 515.525 441.547C514.453 442.443 513.861 442.939 513.749 443.035L513.869 443.251ZM526.275 436.603L526.371 436.795C528.419 435.067 530.611 433.595 532.947 432.379C533.331 432.443 533.587 432.643 533.715 432.979C533.859 433.315 533.843 433.675 533.667 434.059C530.707 435.243 528.435 436.499 526.851 437.827C528.163 440.355 530.371 442.323 533.475 443.731C533.635 444.019 533.611 444.315 533.403 444.619C533.195 444.907 532.851 445.147 532.371 445.339C531.315 444.731 530.243 443.923 529.155 442.915C528.083 441.891 527.155 440.803 526.371 439.651C526.067 441.251 525.731 443.147 525.363 445.339C524.307 445.435 523.619 445.243 523.299 444.763C524.323 441.291 525.267 436.747 526.131 431.131L525.891 426.571C526.515 425.995 527.291 425.763 528.219 425.875C528.203 427.187 527.755 430.483 526.875 435.763L526.275 436.603ZM543.322 428.731L544.042 426.859C544.554 426.715 545.074 426.739 545.602 426.931C546.146 427.123 546.426 427.355 546.442 427.627L542.626 431.371C542.146 431.371 541.882 431.235 541.834 430.963L543.322 428.731ZM535.57 439.819C535.57 438.779 535.906 437.643 536.578 436.411C537.25 435.179 538.066 434.147 539.026 433.315C540.002 432.483 540.89 432.067 541.69 432.067C542.49 432.067 543.354 432.811 544.282 434.299C545.21 435.787 545.682 437.051 545.698 438.091C545.73 439.131 545.394 440.219 544.69 441.355C544.002 442.475 543.154 443.419 542.146 444.187C541.154 444.955 540.258 445.339 539.458 445.339C538.658 445.339 537.81 444.779 536.914 443.659C536.018 442.539 535.57 441.259 535.57 439.819ZM541.498 433.411C540.218 434.131 539.25 434.979 538.594 435.955C537.938 436.915 537.466 438.051 537.178 439.363C537.242 440.435 537.45 441.347 537.802 442.099C538.154 442.851 538.698 443.539 539.434 444.163C540.858 443.555 541.938 442.787 542.674 441.859C543.426 440.931 543.938 439.763 544.21 438.355C544.066 437.507 543.754 436.627 543.274 435.715C542.794 434.803 542.202 434.035 541.498 433.411ZM552.259 434.899L554.491 433.963C554.763 434.011 554.963 434.163 555.091 434.419C555.235 434.659 555.219 434.931 555.043 435.235L552.115 436.075C551.827 438.587 551.467 441.675 551.035 445.339C549.867 445.451 549.107 445.203 548.755 444.595C549.555 441.443 550.155 438.763 550.555 436.555L548.227 437.323C547.859 437.195 547.619 436.987 547.507 436.699C547.411 436.395 547.467 436.155 547.675 435.979L550.771 435.427C550.803 435.219 550.963 434.203 551.251 432.379L551.539 426.451C552.099 426.115 552.547 425.915 552.883 425.851C553.235 425.787 553.619 425.851 554.035 426.043L552.643 431.419C552.563 432.091 552.435 433.251 552.259 434.899ZM558.032 436.603L558.128 436.795C560.176 435.067 562.368 433.595 564.704 432.379C565.088 432.443 565.344 432.643 565.472 432.979C565.616 433.315 565.6 433.675 565.424 434.059C562.464 435.243 560.192 436.499 558.608 437.827C559.92 440.355 562.128 442.323 565.232 443.731C565.392 444.019 565.368 444.315 565.16 444.619C564.952 444.907 564.608 445.147 564.128 445.339C563.072 444.731 562 443.923 560.912 442.915C559.84 441.891 558.912 440.803 558.128 439.651C557.824 441.251 557.488 443.147 557.12 445.339C556.064 445.435 555.376 445.243 555.056 444.763C556.08 441.291 557.024 436.747 557.888 431.131L557.648 426.571C558.272 425.995 559.048 425.763 559.976 425.875C559.96 427.187 559.512 430.483 558.632 435.763L558.032 436.603ZM574.36 441.427L571.216 445.027C569.984 445.011 569.04 444.651 568.384 443.947C567.728 443.243 567.392 442.267 567.376 441.019C567.36 439.755 567.648 438.443 568.24 437.083C568.832 435.707 569.624 434.579 570.616 433.699C571.608 432.819 572.616 432.379 573.64 432.379C574.584 432.795 575.376 433.571 576.016 434.707L576.04 434.635C576.088 433.579 576.216 432.779 576.424 432.235C577.56 432.235 578.32 432.491 578.704 433.003L576.904 436.531C576.616 438.387 576.312 441.323 575.992 445.339C574.904 445.467 574.088 445.235 573.544 444.643L574.624 441.643L574.36 441.427ZM569.2 440.995C569.2 442.211 569.648 443.083 570.544 443.611C572 442.171 573.408 440.811 574.768 439.531L575.584 436.003C575.328 435.459 575.056 435.019 574.768 434.683C574.48 434.347 574.072 434.003 573.544 433.651C572.184 434.211 571.12 435.155 570.352 436.483C569.584 437.795 569.2 439.299 569.2 440.995ZM597.007 441.235C597.007 440.739 596.031 440.075 594.079 439.243C593.343 438.923 592.623 438.507 591.919 437.995C591.231 437.467 590.807 436.915 590.647 436.339C590.839 435.187 591.479 434.211 592.567 433.411C593.655 432.611 594.871 432.163 596.215 432.067C596.983 432.403 597.607 432.827 598.087 433.339C598.583 433.835 598.919 434.523 599.095 435.403C599.047 435.659 598.855 435.851 598.519 435.979C598.199 436.091 597.751 436.091 597.175 435.979C597.127 435.019 596.751 434.083 596.047 433.171C595.199 433.411 594.399 433.835 593.647 434.443C592.911 435.051 592.543 435.563 592.543 435.979C592.543 436.427 593.503 437.091 595.423 437.971C596.159 438.307 596.871 438.771 597.559 439.363C598.263 439.939 598.695 440.555 598.855 441.211C598.583 442.459 597.943 443.443 596.935 444.163C595.943 444.883 594.655 445.275 593.071 445.339C592.191 445.083 591.399 444.595 590.695 443.875C590.007 443.155 589.607 442.443 589.495 441.739C589.783 441.307 590.055 441.027 590.311 440.899C590.583 440.755 590.919 440.723 591.319 440.803C591.607 442.307 592.255 443.467 593.263 444.283C594.447 444.043 595.367 443.627 596.023 443.035C596.679 442.443 597.007 441.843 597.007 441.235ZM608.308 439.675V439.627C608.836 436.779 609.372 434.315 609.916 432.235C611.052 432.235 611.812 432.491 612.196 433.003L610.396 436.531C610.044 438.819 609.764 441.755 609.556 445.339C608.58 445.451 607.868 445.251 607.42 444.739L608.596 441.595L608.308 441.355C607.348 442.603 606.164 443.931 604.756 445.339C602.564 445.035 601.26 444.283 600.844 443.083L602.068 438.931C602.308 436.211 602.412 433.979 602.38 432.235C602.876 432.171 603.276 432.195 603.58 432.307C603.884 432.403 604.228 432.627 604.612 432.979C604.356 435.251 603.756 438.483 602.812 442.675C603.02 443.171 603.58 443.555 604.492 443.827C606.092 442.387 607.364 441.003 608.308 439.675ZM615.843 436.027L616.131 436.219C617.011 435.067 618.059 433.787 619.275 432.379C619.931 432.475 620.467 432.795 620.883 433.339C621.299 433.867 621.507 434.491 621.507 435.211C620.691 435.819 619.971 435.955 619.347 435.619C619.395 434.883 619.243 434.443 618.891 434.299C618.107 435.195 617.187 436.331 616.131 437.707C615.699 440.555 615.267 443.099 614.835 445.339C613.795 445.435 613.115 445.243 612.795 444.763C613.755 441.451 614.451 438.667 614.883 436.411L614.403 432.979C614.755 432.627 615.107 432.395 615.459 432.283C615.811 432.171 616.243 432.155 616.755 432.235C616.835 432.619 616.747 433.491 616.491 434.851L615.843 436.027ZM629.879 432.931C631.015 432.275 631.847 432.259 632.375 432.883C631.447 437.779 629.431 441.931 626.327 445.339C625.767 445.339 625.247 445.243 624.767 445.051C624.303 444.843 624.023 444.555 623.927 444.187C624.215 442.203 624.359 440.699 624.359 439.675C624.375 438.651 624.215 437.483 623.879 436.171L621.887 433.699C621.983 433.267 622.223 432.931 622.607 432.691C622.991 432.451 623.447 432.347 623.975 432.379C625.639 434.635 626.255 438.379 625.823 443.611L626.015 443.731C628.367 440.771 629.847 438.059 630.455 435.595L629.879 432.931ZM634.642 436.507L634.57 432.763C635.29 432.459 635.818 432.331 636.154 432.379C636.49 432.427 636.746 432.555 636.922 432.763L636.034 435.883C635.762 438.203 635.442 441.355 635.074 445.339C633.906 445.451 633.146 445.203 632.794 444.595C633.322 442.787 633.938 440.091 634.642 436.507ZM637.258 430.027C637.29 430.379 637.186 430.683 636.946 430.939C636.706 431.179 636.402 431.299 636.034 431.299C635.666 431.299 635.354 431.179 635.098 430.939C634.842 430.683 634.698 430.379 634.666 430.027C634.65 429.659 634.762 429.355 635.002 429.115C635.258 428.875 635.57 428.755 635.938 428.755C636.306 428.755 636.61 428.875 636.85 429.115C637.106 429.355 637.242 429.659 637.258 430.027ZM645.887 432.931C647.023 432.275 647.855 432.259 648.383 432.883C647.455 437.779 645.439 441.931 642.335 445.339C641.775 445.339 641.255 445.243 640.775 445.051C640.311 444.843 640.031 444.555 639.935 444.187C640.223 442.203 640.367 440.699 640.367 439.675C640.383 438.651 640.223 437.483 639.887 436.171L637.895 433.699C637.991 433.267 638.231 432.931 638.615 432.691C638.999 432.451 639.455 432.347 639.983 432.379C641.647 434.635 642.263 438.379 641.831 443.611L642.023 443.731C644.375 440.771 645.855 438.059 646.463 435.595L645.887 432.931ZM655.642 441.427L652.498 445.027C651.266 445.011 650.322 444.651 649.666 443.947C649.01 443.243 648.674 442.267 648.658 441.019C648.642 439.755 648.93 438.443 649.521 437.083C650.114 435.707 650.906 434.579 651.898 433.699C652.89 432.819 653.898 432.379 654.922 432.379C655.866 432.795 656.658 433.571 657.298 434.707L657.322 434.635C657.37 433.579 657.498 432.779 657.706 432.235C658.842 432.235 659.602 432.491 659.986 433.003L658.186 436.531C657.898 438.387 657.594 441.323 657.274 445.339C656.186 445.467 655.37 445.235 654.826 444.643L655.906 441.643L655.642 441.427ZM650.482 440.995C650.482 442.211 650.93 443.083 651.826 443.611C653.282 442.171 654.69 440.811 656.05 439.531L656.866 436.003C656.61 435.459 656.338 435.019 656.05 434.683C655.762 434.347 655.354 434.003 654.826 433.651C653.466 434.211 652.402 435.155 651.634 436.483C650.866 437.795 650.482 439.299 650.482 440.995ZM663.417 432.379L663.705 426.451C664.265 426.115 664.713 425.915 665.049 425.851C665.401 425.787 665.785 425.851 666.201 426.043L664.809 431.419C664.409 434.987 663.873 439.627 663.201 445.339C662.033 445.451 661.273 445.203 660.921 444.595C662.009 440.339 662.841 436.267 663.417 432.379ZM666.516 439.819C666.516 438.779 666.852 437.643 667.524 436.411C668.196 435.179 669.012 434.147 669.972 433.315C670.948 432.483 671.836 432.067 672.636 432.067C673.436 432.067 674.3 432.811 675.228 434.299C676.156 435.787 676.628 437.051 676.644 438.091C676.676 439.131 676.34 440.219 675.636 441.355C674.948 442.475 674.1 443.419 673.092 444.187C672.1 444.955 671.204 445.339 670.404 445.339C669.604 445.339 668.756 444.779 667.86 443.659C666.964 442.539 666.516 441.259 666.516 439.819ZM672.444 433.411C671.164 434.131 670.196 434.979 669.54 435.955C668.884 436.915 668.412 438.051 668.124 439.363C668.188 440.435 668.396 441.347 668.748 442.099C669.1 442.851 669.644 443.539 670.38 444.163C671.804 443.555 672.884 442.787 673.62 441.859C674.372 440.931 674.884 439.763 675.156 438.355C675.012 437.507 674.7 436.627 674.22 435.715C673.74 434.803 673.148 434.035 672.444 433.411ZM688.053 443.659L688.221 443.731C690.125 441.523 691.509 438.771 692.373 435.475L691.725 432.811C692.829 432.123 693.661 432.083 694.221 432.691C693.613 437.491 691.765 441.707 688.677 445.339C688.117 445.371 687.597 445.275 687.117 445.051C686.637 444.827 686.349 444.539 686.253 444.187C686.717 441.883 686.861 439.779 686.685 437.875L686.541 437.827C685.805 440.003 684.333 442.507 682.125 445.339C681.565 445.339 681.045 445.243 680.565 445.051C680.101 444.843 679.821 444.555 679.725 444.187C680.029 442.331 680.197 440.851 680.229 439.747C680.277 438.643 680.197 437.451 679.989 436.171L677.997 433.699C678.093 433.267 678.333 432.931 678.717 432.691C679.101 432.451 679.557 432.347 680.085 432.379C681.669 434.763 682.181 438.507 681.621 443.611L681.813 443.659C683.493 441.403 684.901 438.787 686.037 435.811L684.573 433.555C684.717 433.139 684.989 432.827 685.389 432.619C685.805 432.411 686.269 432.347 686.781 432.427C687.581 434.363 688.069 436.155 688.245 437.803C688.437 439.435 688.373 441.387 688.053 443.659ZM701.415 441.427L698.271 445.027C697.039 445.011 696.095 444.651 695.439 443.947C694.783 443.243 694.447 442.267 694.431 441.019C694.415 439.755 694.703 438.443 695.295 437.083C695.887 435.707 696.679 434.579 697.671 433.699C698.663 432.819 699.671 432.379 700.695 432.379C701.639 432.795 702.431 433.571 703.071 434.707L703.095 434.635C703.143 433.579 703.271 432.779 703.479 432.235C704.615 432.235 705.375 432.491 705.759 433.003L703.959 436.531C703.671 438.387 703.367 441.323 703.047 445.339C701.959 445.467 701.143 445.235 700.599 444.643L701.679 441.643L701.415 441.427ZM696.255 440.995C696.255 442.211 696.703 443.083 697.599 443.611C699.055 442.171 700.463 440.811 701.823 439.531L702.639 436.003C702.383 435.459 702.111 435.019 701.823 434.683C701.535 434.347 701.127 434.003 700.599 433.651C699.239 434.211 698.175 435.155 697.407 436.483C696.639 437.795 696.255 439.299 696.255 440.995Z" fill="black"/>
</g>
</g>
<path fill-rule="evenodd" clip-rule="evenodd" d="M502.208 307.753V308.713L502.4 316.201V323.881V335.305C502.4 338.121 502.336 339.945 502.208 340.777C502.144 342.377 501.792 343.945 501.152 345.481C500.512 346.825 500.192 347.849 500.192 348.553C500.192 349.577 501.024 350.249 502.688 350.569C504.096 350.825 505.76 351.017 507.68 351.145C509.6 351.209 511.808 351.241 514.304 351.241H516.224C521.28 351.241 525.344 350.729 528.416 349.705C532.192 348.425 535.232 346.697 537.536 344.521C539.904 342.345 541.728 339.977 543.008 337.417C544.288 334.857 545.12 332.233 545.504 329.545C545.952 326.793 546.176 324.265 546.176 321.961L546.272 320.905C546.272 312.265 543.904 305.513 539.168 300.649C534.496 295.721 527.808 293.257 519.104 293.257H516.128C510.56 293.257 506.048 293.545 502.592 294.121C500.864 294.377 500 295.049 500 296.137V296.809C500 296.937 500.352 297.897 501.056 299.689C501.76 301.289 502.112 302.921 502.112 304.585V306.505C502.112 307.017 502.144 307.433 502.208 307.753ZM536.096 320.521V323.401C536.096 326.217 535.776 328.937 535.136 331.561C534.496 334.185 533.44 336.521 531.968 338.569C530.56 340.553 528.704 342.153 526.4 343.369C524.16 344.521 521.44 345.097 518.24 345.097L517.664 345.193C514.976 345.193 513.184 344.905 512.288 344.329C511.456 343.753 511.04 342.793 511.04 341.449L510.944 338.857V337.033L510.848 336.361V329.929L510.944 327.337V312.937C510.944 305.769 511.04 301.801 511.232 301.033C511.616 299.625 513.504 298.921 516.896 298.921H518.72C521.792 298.921 524.416 299.561 526.592 300.841C528.832 302.057 530.656 303.689 532.064 305.737C533.472 307.721 534.496 310.025 535.136 312.649C535.776 315.209 536.096 317.833 536.096 320.521ZM576.959 329.065C583.423 320.105 586.655 314.697 586.655 312.841C586.655 311.881 586.271 311.177 585.503 310.729C584.863 310.345 583.007 310.153 579.935 310.153L574.655 309.961H562.751L561.695 309.865C559.263 309.865 557.663 310.249 556.895 311.017C556.127 311.785 555.743 313.097 555.743 314.953C555.743 316.745 556.575 317.641 558.239 317.641C558.815 317.641 560.191 317.353 562.367 316.777C564.607 316.201 566.719 315.913 568.703 315.913C572.799 315.913 574.847 316.329 574.847 317.161C574.847 317.929 571.583 322.889 565.055 332.041C558.463 341.129 555.167 346.473 555.167 348.073V348.937C555.167 349.961 555.903 350.633 557.375 350.953C557.695 351.017 558.911 351.081 561.023 351.145H570.143H579.743C584.991 351.145 587.615 349.769 587.615 347.017V346.057C587.615 344.009 586.847 342.985 585.311 342.985L579.839 344.521C577.855 345.097 575.263 345.385 572.063 345.385C568.863 345.385 567.263 344.873 567.263 343.849C567.263 343.081 570.495 338.153 576.959 329.065ZM598.355 350.281C599.187 350.921 600.179 351.241 601.331 351.241H603.443C605.363 351.241 606.963 350.889 608.243 350.185C609.523 349.481 610.163 348.553 610.163 347.401C610.163 346.377 609.907 345.353 609.395 344.329C608.051 342.025 607.379 339.241 607.379 335.977L607.091 330.121V320.713C607.091 318.537 607.059 316.809 606.995 315.529C606.995 314.249 606.867 313.289 606.611 312.649C606.419 312.009 606.067 311.593 605.555 311.401C605.043 311.209 604.275 311.113 603.251 311.113H601.811C598.483 311.113 596.819 311.913 596.819 313.513V314.377C596.819 314.441 597.107 315.209 597.683 316.681L598.067 317.545C598.387 318.441 598.611 319.689 598.739 321.289V337.513L598.547 340.681C598.547 341.961 598.323 343.273 597.875 344.617C597.363 346.281 597.107 347.401 597.107 347.977C597.107 348.809 597.523 349.577 598.355 350.281ZM604.211 293.353H602.771C601.235 293.353 600.115 293.769 599.411 294.601C598.707 295.433 598.355 296.169 598.355 296.809L598.163 298.153V298.345L598.355 299.689C598.355 300.521 598.675 301.289 599.315 301.993C600.019 302.633 600.627 302.953 601.139 302.953C601.715 302.953 602.131 302.985 602.387 303.049H603.731L604.499 302.953C605.715 302.953 606.675 302.505 607.379 301.609C608.147 300.713 608.531 299.689 608.531 298.537V297.577C608.531 296.169 608.083 295.113 607.187 294.409C606.355 293.705 605.363 293.353 604.211 293.353ZM635.134 322.441C634.238 323.209 633.598 323.593 633.214 323.593C631.678 323.593 630.91 321.193 630.91 316.393L630.814 311.209V302.569C630.814 298.089 630.59 295.273 630.142 294.121C629.438 292.457 628.062 291.625 626.014 291.625H624.958C623.678 291.625 622.59 291.849 621.694 292.297C620.862 292.809 620.446 293.321 620.446 293.833V294.793C620.446 294.921 620.606 295.529 620.926 296.617C621.054 297.129 621.15 297.673 621.214 298.249C621.342 298.761 621.47 299.369 621.598 300.073C621.79 301.417 621.886 305.129 621.886 311.209V319.561L621.79 322.345V323.785C621.79 324.233 621.758 324.713 621.694 325.225V333.289C621.694 335.081 621.63 336.937 621.502 338.857C621.374 340.713 621.182 342.665 620.926 344.713L620.83 345.673C620.83 348.553 621.95 349.993 624.19 349.993C629.182 349.993 631.678 348.329 631.678 345.001V344.329C631.678 343.945 631.646 343.465 631.582 342.889L631.39 340.681C631.39 338.569 631.71 336.809 632.35 335.401C633.054 333.929 633.886 333.193 634.846 333.193C636.19 333.193 638.43 335.689 641.566 340.681C643.038 342.985 644.19 344.809 645.022 346.153C645.918 347.433 646.686 348.393 647.326 349.033C647.966 349.609 648.574 349.961 649.15 350.089C649.79 350.217 650.59 350.281 651.55 350.281H652.51C655.006 350.281 656.254 349.705 656.254 348.553L649.534 339.145C644.99 332.873 642.718 329.321 642.718 328.489C642.718 326.761 644.51 323.817 648.094 319.657C651.678 315.625 653.47 313.417 653.47 313.033C653.47 311.625 651.902 310.921 648.766 310.921C647.23 310.921 646.078 311.209 645.31 311.785C644.542 312.297 643.71 313.161 642.814 314.377C642.43 314.889 641.758 315.657 640.798 316.681C639.902 317.641 638.942 318.665 637.918 319.753C636.958 320.777 636.03 321.673 635.134 322.441ZM701.348 331.369V329.929C701.348 328.199 701.181 326.524 700.847 324.905L692.005 332.927L691.94 333.577C691.94 337.353 691.044 340.457 689.252 342.889C687.46 345.321 685.156 346.537 682.34 346.537H681.572C680.346 346.537 679.179 346.214 678.071 345.569L673.033 350.14C673.311 350.288 673.598 350.431 673.892 350.569C676.196 351.657 678.564 352.201 680.996 352.201H682.436C685.124 352.201 687.844 351.529 690.596 350.185C694.308 348.457 697.028 345.865 698.756 342.409C700.484 338.953 701.348 335.273 701.348 331.369ZM667.116 344.706C666.53 343.801 666.036 342.875 665.636 341.929C664.996 340.265 664.548 338.601 664.292 336.937C664.1 335.273 664.004 333.769 664.004 332.425V330.313C664.004 328.393 664.196 326.505 664.58 324.649C665.028 322.729 665.668 320.969 666.5 319.369C667.332 317.705 668.42 316.201 669.764 314.857C671.108 313.513 672.708 312.425 674.564 311.593C676.996 310.441 679.428 309.865 681.86 309.865H683.972C686.852 309.865 689.38 310.441 691.556 311.593C693.732 312.681 695.524 314.153 696.932 316.009C697.186 316.329 697.428 316.658 697.659 316.995L691.17 322.882C690.767 321.555 690.224 320.352 689.54 319.273C687.94 316.585 685.732 315.241 682.916 315.241H682.052C679.3 315.241 676.996 316.585 675.14 319.273C673.284 321.961 672.356 325.545 672.356 330.025V332.905C672.42 333.225 672.452 333.513 672.452 333.769V334.249C672.452 335.785 672.676 337.289 673.124 338.761C673.168 338.886 673.212 339.011 673.258 339.134L667.116 344.706Z" fill="black"/>
<path d="M661.825 360.526L660.847 361.637C657.158 360.41 655.87 357.587 655.687 356.329C656.062 355.793 657 355.12 657.421 354.85C658.482 352.879 660.576 354.332 661.491 355.305C664.88 358.556 663.125 360.14 661.825 360.526Z" fill="#B79D53"/>
<path d="M638.449 379.665C634.877 382.829 631.329 384.089 630.002 384.323C631.668 380.462 634.347 377.69 635.478 376.787C636.377 378.693 637.833 379.5 638.449 379.665Z" fill="#D4A27B"/>
<path d="M642.238 376.533L638.355 379.799C636.813 379.039 635.656 377.577 635.27 376.941C635.822 375.811 638.548 373.351 639.842 372.263C639.73 371.626 639.916 371.35 640.023 371.292L655.687 356.328C656.356 359.589 659.406 361.226 660.847 361.637L644.433 375.677C644.632 375.736 643.052 376.272 642.238 376.533Z" fill="#B79D53"/>
</g>
<defs>
<filter id="filter0_di_121:2" x="0" y="116" width="1010" height="470.054" filterUnits="userSpaceOnUse" color-interpolation-filters="sRGB">
<feFlood flood-opacity="0" result="BackgroundImageFix"/>
<feColorMatrix in="SourceAlpha" type="matrix" values="0 0 0 0 0 0 0 0 0 0 0 0 0 0 0 0 0 0 127 0" result="hardAlpha"/>
<feOffset dx="6" dy="4"/>
<feGaussianBlur stdDeviation="2"/>
<feComposite in2="hardAlpha" operator="out"/>
<feColorMatrix type="matrix" values="0 0 0 0 0 0 0 0 0 0 0 0 0 0 0 0 0 0 0.25 0"/>
<feBlend mode="normal" in2="BackgroundImageFix" result="effect1_dropShadow_121:2"/>
<feBlend mode="normal" in="SourceGraphic" in2="effect1_dropShadow_121:2" result="shape"/>
<feColorMatrix in="SourceAlpha" type="matrix" values="0 0 0 0 0 0 0 0 0 0 0 0 0 0 0 0 0 0 127 0" result="hardAlpha"/>
<feOffset dx="6" dy="4"/>
<feGaussianBlur stdDeviation="2"/>
<feComposite in2="hardAlpha" operator="arithmetic" k2="-1" k3="1"/>
<feColorMatrix type="matrix" values="0 0 0 0 0 0 0 0 0 0 0 0 0 0 0 0 0 0 0.25 0"/>
<feBlend mode="normal" in2="shape" result="effect2_innerShadow_121:2"/>
</filter>
<filter id="filter1_i_121:2" x="75.8928" y="142.786" width="409.298" height="425.017" filterUnits="userSpaceOnUse" color-interpolation-filters="sRGB">
<feFlood flood-opacity="0" result="BackgroundImageFix"/>
<feBlend mode="normal" in="SourceGraphic" in2="BackgroundImageFix" result="shape"/>
<feColorMatrix in="SourceAlpha" type="matrix" values="0 0 0 0 0 0 0 0 0 0 0 0 0 0 0 0 0 0 127 0" result="hardAlpha"/>
<feOffset dx="6" dy="4"/>
<feGaussianBlur stdDeviation="2"/>
<feComposite in2="hardAlpha" operator="arithmetic" k2="-1" k3="1"/>
<feColorMatrix type="matrix" values="0 0 0 0 0 0 0 0 0 0 0 0 0 0 0 0 0 0 0.25 0"/>
<feBlend mode="normal" in2="shape" result="effect1_innerShadow_121:2"/>
</filter>
<filter id="filter2_d_121:2" x="500.456" y="425.707" width="215.303" height="27.824" filterUnits="userSpaceOnUse" color-interpolation-filters="sRGB">
<feFlood flood-opacity="0" result="BackgroundImageFix"/>
<feColorMatrix in="SourceAlpha" type="matrix" values="0 0 0 0 0 0 0 0 0 0 0 0 0 0 0 0 0 0 127 0" result="hardAlpha"/>
<feOffset dx="6" dy="4"/>
<feGaussianBlur stdDeviation="2"/>
<feComposite in2="hardAlpha" operator="out"/>
<feColorMatrix type="matrix" values="0 0 0 0 0 0 0 0 0 0 0 0 0 0 0 0 0 0 0.25 0"/>
<feBlend mode="normal" in2="BackgroundImageFix" result="effect1_dropShadow_121:2"/>
<feBlend mode="normal" in="SourceGraphic" in2="effect1_dropShadow_121:2" result="shape"/>
</filter>
<clipPath id="clip0_121:2">
<rect width="1000" height="693.075" fill="white"/>
</clipPath>
</defs>
</svg>
