<svg width="1010" height="462" viewBox="0 0 1010 462" fill="none" xmlns="http://www.w3.org/2000/svg">
<g filter="url(#filter0_di_114:2)">
<ellipse cx="500" cy="231.027" rx="500" ry="231.027" fill="#A33636"/>
</g>
<mask id="mask0_114:2" style="mask-type:alpha" maskUnits="userSpaceOnUse" x="0" y="0" width="1000" height="463">
<path d="M999.5 231.027C999.5 294.511 943.789 352.143 853.344 393.934C762.941 435.704 638.016 461.554 500 461.554C361.984 461.554 237.059 435.704 146.656 393.934C56.2113 352.143 0.5 294.511 0.5 231.027C0.5 167.543 56.2113 109.911 146.656 68.1201C237.059 26.3492 361.984 0.5 500 0.5C638.016 0.5 762.941 26.3492 853.344 68.1201C943.789 109.911 999.5 167.543 999.5 231.027Z" fill="#A33636" stroke="black"/>
</mask>
<g mask="url(#mask0_114:2)">
<g filter="url(#filter1_i_114:2)">
<path d="M343.022 423.681C365.092 403.307 369.801 393.161 369.396 390.634C367.456 390.149 347.165 409.027 337.262 418.527L336.959 418.224L335.14 420.043L332.715 417.617L330.896 419.133L333.624 422.165C318.83 435.748 314.121 443.186 313.616 445.207C316.526 447.875 320.285 447.329 321.801 446.723C321.074 442.599 330.391 434.494 335.14 430.957L339.081 427.319L342.113 430.654L343.628 429.138L341.203 426.106C342.658 424.409 343.022 423.782 343.022 423.681Z" fill="black" stroke="black"/>
<path d="M117.91 75.035C243.356 -16.9293 350.983 43.413 389.115 85.0796C294.026 183.294 316.013 367.818 338.892 447.803H296.481V408.182C279.964 387.647 256.489 394.789 246.816 400.928V433.852H211.66C218.803 411.084 196.779 336.94 184.874 302.714C188.446 339.767 198.267 373.956 202.731 386.419H180.41C168.803 361.419 151.02 289.321 143.58 256.397C94.9189 348.361 119.956 398.882 138.557 412.647H107.307C83.2002 405.504 85.3579 326.337 89.4501 287.647C55.0751 201.932 94.1004 110.191 117.91 75.035Z" fill="#585C46"/>
<path d="M481.191 48.2494C452.62 30.3922 407.531 67.5946 388.557 88.4279C336.325 46.9101 297.225 71.1288 284.205 88.4279C234.651 41.9993 200.685 35.2285 189.897 37.6467C174.272 151.932 220.217 182.736 245.142 183.852L239.004 225.147C224.718 326.486 244.956 375.258 256.861 386.977C276.95 415.102 324.755 406.508 346.147 398.696C412.664 396.464 416.645 264.209 410.321 198.361L415.343 174.365C459.539 198.026 477.657 100.147 481.191 48.2494Z" fill="#494A35"/>
<ellipse cx="269.696" cy="187.758" rx="21.7634" ry="24.5536" fill="#CFD2C1"/>
<ellipse cx="385.209" cy="189.432" rx="23.4375" ry="25.1116" fill="#C4C4C4"/>
<ellipse cx="274.16" cy="187.758" rx="13.9509" ry="12.2768" fill="#161908"/>
<ellipse cx="383.535" cy="192.222" rx="13.9509" ry="12.2768" fill="#161908"/>
<path d="M272.486 138.651C274.272 76.151 225.239 57.1778 200.499 55.5037C189.785 142.557 225.797 168.785 245.142 171.017C237.106 140.66 260.023 136.791 272.486 138.651Z" fill="#0A0D0A"/>
<path d="M401.392 97.9144C419.696 65.3251 451.801 60.154 465.566 61.6421C465.566 158.963 434.316 168.041 418.691 160.414C393.691 142.557 396.742 111.307 401.392 97.9144Z" fill="#0A0D0A"/>
<path d="M272.486 138.651C274.272 76.151 225.239 57.1778 200.499 55.5037C189.785 142.557 225.797 168.785 245.142 171.017C237.106 140.66 260.023 136.791 272.486 138.651Z" stroke="black"/>
<path d="M401.392 97.9144C419.696 65.3251 451.801 60.154 465.566 61.6421C465.566 158.963 434.316 168.041 418.691 160.414C393.691 142.557 396.742 111.307 401.392 97.9144Z" stroke="black"/>
<path d="M256.303 374.7C274.346 341.032 317.24 295.013 344.472 380.28C332.754 403.532 298.714 434.968 256.303 374.7Z" fill="#0F1201"/>
<path d="M256.303 374.7C274.346 341.032 317.24 295.013 344.472 380.28C332.754 403.532 298.714 434.968 256.303 374.7Z" fill="#ABA68E" fill-opacity="0.5"/>
<path d="M256.303 374.7C274.346 341.032 317.24 295.013 344.472 380.28M256.303 374.7C298.714 434.968 332.754 403.532 344.472 380.28M256.303 374.7C265.975 361.679 297.151 344.566 344.472 380.28" stroke="black"/>
<circle cx="284.205" cy="383.629" r="7.25446" fill="black"/>
<circle cx="312.106" cy="383.629" r="7.25446" fill="black"/>
</g>
<g filter="url(#filter2_d_114:2)">
<path d="M507.968 325.235C507.968 324.739 506.992 324.075 505.04 323.243C504.304 322.923 503.584 322.507 502.88 321.995C502.192 321.467 501.768 320.915 501.608 320.339C501.8 319.187 502.44 318.211 503.528 317.411C504.616 316.611 505.832 316.163 507.176 316.067C507.944 316.403 508.568 316.827 509.048 317.339C509.544 317.835 509.88 318.523 510.056 319.403C510.008 319.659 509.816 319.851 509.48 319.979C509.16 320.091 508.712 320.091 508.136 319.979C508.088 319.019 507.712 318.083 507.008 317.171C506.16 317.411 505.36 317.835 504.608 318.443C503.872 319.051 503.504 319.563 503.504 319.979C503.504 320.427 504.464 321.091 506.384 321.971C507.12 322.307 507.832 322.771 508.52 323.363C509.224 323.939 509.656 324.555 509.816 325.211C509.544 326.459 508.904 327.443 507.896 328.163C506.904 328.883 505.616 329.275 504.032 329.339C503.152 329.083 502.36 328.595 501.656 327.875C500.968 327.155 500.568 326.443 500.456 325.739C500.744 325.307 501.016 325.027 501.272 324.899C501.544 324.755 501.88 324.723 502.28 324.803C502.568 326.307 503.216 327.467 504.224 328.283C505.408 328.043 506.328 327.627 506.984 327.035C507.64 326.443 507.968 325.843 507.968 325.235ZM513.869 327.251H516.053C517.269 327.251 518.413 327.347 519.485 327.539C519.821 326.883 520.021 326.267 520.085 325.691C521.221 325.451 521.821 325.683 521.885 326.387C521.629 327.571 520.893 328.555 519.677 329.339C518.877 328.923 517.861 328.643 516.629 328.499C515.413 328.339 514.341 328.291 513.413 328.355L513.317 328.475L513.485 328.883C513.261 329.267 512.669 329.419 511.709 329.339C511.517 328.971 511.421 328.563 511.421 328.115C511.421 327.667 511.629 327.211 512.045 326.747C512.461 326.267 513.013 325.755 513.701 325.211C514.389 324.667 515.109 324.099 515.861 323.507C516.629 322.899 517.421 322.163 518.237 321.299C519.069 320.435 519.749 319.555 520.277 318.659L520.133 318.467C518.661 318.499 517.021 318.315 515.213 317.915C514.749 318.603 514.517 319.411 514.517 320.339C513.573 320.563 512.949 320.387 512.645 319.811C512.949 318.051 513.701 316.907 514.901 316.379C517.173 317.083 519.053 317.419 520.541 317.387L520.949 316.379C521.509 316.411 521.909 316.491 522.149 316.619C522.389 316.747 522.589 316.955 522.749 317.243C522.653 318.427 521.581 319.995 519.533 321.947C517.949 323.451 516.613 324.651 515.525 325.547C514.453 326.443 513.861 326.939 513.749 327.035L513.869 327.251ZM526.275 320.603L526.371 320.795C528.419 319.067 530.611 317.595 532.947 316.379C533.331 316.443 533.587 316.643 533.715 316.979C533.859 317.315 533.843 317.675 533.667 318.059C530.707 319.243 528.435 320.499 526.851 321.827C528.163 324.355 530.371 326.323 533.475 327.731C533.635 328.019 533.611 328.315 533.403 328.619C533.195 328.907 532.851 329.147 532.371 329.339C531.315 328.731 530.243 327.923 529.155 326.915C528.083 325.891 527.155 324.803 526.371 323.651C526.067 325.251 525.731 327.147 525.363 329.339C524.307 329.435 523.619 329.243 523.299 328.763C524.323 325.291 525.267 320.747 526.131 315.131L525.891 310.571C526.515 309.995 527.291 309.763 528.219 309.875C528.203 311.187 527.755 314.483 526.875 319.763L526.275 320.603ZM543.322 312.731L544.042 310.859C544.554 310.715 545.074 310.739 545.602 310.931C546.146 311.123 546.426 311.355 546.442 311.627L542.626 315.371C542.146 315.371 541.882 315.235 541.834 314.963L543.322 312.731ZM535.57 323.819C535.57 322.779 535.906 321.643 536.578 320.411C537.25 319.179 538.066 318.147 539.026 317.315C540.002 316.483 540.89 316.067 541.69 316.067C542.49 316.067 543.354 316.811 544.282 318.299C545.21 319.787 545.682 321.051 545.698 322.091C545.73 323.131 545.394 324.219 544.69 325.355C544.002 326.475 543.154 327.419 542.146 328.187C541.154 328.955 540.258 329.339 539.458 329.339C538.658 329.339 537.81 328.779 536.914 327.659C536.018 326.539 535.57 325.259 535.57 323.819ZM541.498 317.411C540.218 318.131 539.25 318.979 538.594 319.955C537.938 320.915 537.466 322.051 537.178 323.363C537.242 324.435 537.45 325.347 537.802 326.099C538.154 326.851 538.698 327.539 539.434 328.163C540.858 327.555 541.938 326.787 542.674 325.859C543.426 324.931 543.938 323.763 544.21 322.355C544.066 321.507 543.754 320.627 543.274 319.715C542.794 318.803 542.202 318.035 541.498 317.411ZM552.259 318.899L554.491 317.963C554.763 318.011 554.963 318.163 555.091 318.419C555.235 318.659 555.219 318.931 555.043 319.235L552.115 320.075C551.827 322.587 551.467 325.675 551.035 329.339C549.867 329.451 549.107 329.203 548.755 328.595C549.555 325.443 550.155 322.763 550.555 320.555L548.227 321.323C547.859 321.195 547.619 320.987 547.507 320.699C547.411 320.395 547.467 320.155 547.675 319.979L550.771 319.427C550.803 319.219 550.963 318.203 551.251 316.379L551.539 310.451C552.099 310.115 552.547 309.915 552.883 309.851C553.235 309.787 553.619 309.851 554.035 310.043L552.643 315.419C552.563 316.091 552.435 317.251 552.259 318.899ZM558.032 320.603L558.128 320.795C560.176 319.067 562.368 317.595 564.704 316.379C565.088 316.443 565.344 316.643 565.472 316.979C565.616 317.315 565.6 317.675 565.424 318.059C562.464 319.243 560.192 320.499 558.608 321.827C559.92 324.355 562.128 326.323 565.232 327.731C565.392 328.019 565.368 328.315 565.16 328.619C564.952 328.907 564.608 329.147 564.128 329.339C563.072 328.731 562 327.923 560.912 326.915C559.84 325.891 558.912 324.803 558.128 323.651C557.824 325.251 557.488 327.147 557.12 329.339C556.064 329.435 555.376 329.243 555.056 328.763C556.08 325.291 557.024 320.747 557.888 315.131L557.648 310.571C558.272 309.995 559.048 309.763 559.976 309.875C559.96 311.187 559.512 314.483 558.632 319.763L558.032 320.603ZM574.36 325.427L571.216 329.027C569.984 329.011 569.04 328.651 568.384 327.947C567.728 327.243 567.392 326.267 567.376 325.019C567.36 323.755 567.648 322.443 568.24 321.083C568.832 319.707 569.624 318.579 570.616 317.699C571.608 316.819 572.616 316.379 573.64 316.379C574.584 316.795 575.376 317.571 576.016 318.707L576.04 318.635C576.088 317.579 576.216 316.779 576.424 316.235C577.56 316.235 578.32 316.491 578.704 317.003L576.904 320.531C576.616 322.387 576.312 325.323 575.992 329.339C574.904 329.467 574.088 329.235 573.544 328.643L574.624 325.643L574.36 325.427ZM569.2 324.995C569.2 326.211 569.648 327.083 570.544 327.611C572 326.171 573.408 324.811 574.768 323.531L575.584 320.003C575.328 319.459 575.056 319.019 574.768 318.683C574.48 318.347 574.072 318.003 573.544 317.651C572.184 318.211 571.12 319.155 570.352 320.483C569.584 321.795 569.2 323.299 569.2 324.995ZM597.007 325.235C597.007 324.739 596.031 324.075 594.079 323.243C593.343 322.923 592.623 322.507 591.919 321.995C591.231 321.467 590.807 320.915 590.647 320.339C590.839 319.187 591.479 318.211 592.567 317.411C593.655 316.611 594.871 316.163 596.215 316.067C596.983 316.403 597.607 316.827 598.087 317.339C598.583 317.835 598.919 318.523 599.095 319.403C599.047 319.659 598.855 319.851 598.519 319.979C598.199 320.091 597.751 320.091 597.175 319.979C597.127 319.019 596.751 318.083 596.047 317.171C595.199 317.411 594.399 317.835 593.647 318.443C592.911 319.051 592.543 319.563 592.543 319.979C592.543 320.427 593.503 321.091 595.423 321.971C596.159 322.307 596.871 322.771 597.559 323.363C598.263 323.939 598.695 324.555 598.855 325.211C598.583 326.459 597.943 327.443 596.935 328.163C595.943 328.883 594.655 329.275 593.071 329.339C592.191 329.083 591.399 328.595 590.695 327.875C590.007 327.155 589.607 326.443 589.495 325.739C589.783 325.307 590.055 325.027 590.311 324.899C590.583 324.755 590.919 324.723 591.319 324.803C591.607 326.307 592.255 327.467 593.263 328.283C594.447 328.043 595.367 327.627 596.023 327.035C596.679 326.443 597.007 325.843 597.007 325.235ZM608.308 323.675V323.627C608.836 320.779 609.372 318.315 609.916 316.235C611.052 316.235 611.812 316.491 612.196 317.003L610.396 320.531C610.044 322.819 609.764 325.755 609.556 329.339C608.58 329.451 607.868 329.251 607.42 328.739L608.596 325.595L608.308 325.355C607.348 326.603 606.164 327.931 604.756 329.339C602.564 329.035 601.26 328.283 600.844 327.083L602.068 322.931C602.308 320.211 602.412 317.979 602.38 316.235C602.876 316.171 603.276 316.195 603.58 316.307C603.884 316.403 604.228 316.627 604.612 316.979C604.356 319.251 603.756 322.483 602.812 326.675C603.02 327.171 603.58 327.555 604.492 327.827C606.092 326.387 607.364 325.003 608.308 323.675ZM615.843 320.027L616.131 320.219C617.011 319.067 618.059 317.787 619.275 316.379C619.931 316.475 620.467 316.795 620.883 317.339C621.299 317.867 621.507 318.491 621.507 319.211C620.691 319.819 619.971 319.955 619.347 319.619C619.395 318.883 619.243 318.443 618.891 318.299C618.107 319.195 617.187 320.331 616.131 321.707C615.699 324.555 615.267 327.099 614.835 329.339C613.795 329.435 613.115 329.243 612.795 328.763C613.755 325.451 614.451 322.667 614.883 320.411L614.403 316.979C614.755 316.627 615.107 316.395 615.459 316.283C615.811 316.171 616.243 316.155 616.755 316.235C616.835 316.619 616.747 317.491 616.491 318.851L615.843 320.027ZM629.879 316.931C631.015 316.275 631.847 316.259 632.375 316.883C631.447 321.779 629.431 325.931 626.327 329.339C625.767 329.339 625.247 329.243 624.767 329.051C624.303 328.843 624.023 328.555 623.927 328.187C624.215 326.203 624.359 324.699 624.359 323.675C624.375 322.651 624.215 321.483 623.879 320.171L621.887 317.699C621.983 317.267 622.223 316.931 622.607 316.691C622.991 316.451 623.447 316.347 623.975 316.379C625.639 318.635 626.255 322.379 625.823 327.611L626.015 327.731C628.367 324.771 629.847 322.059 630.455 319.595L629.879 316.931ZM634.642 320.507L634.57 316.763C635.29 316.459 635.818 316.331 636.154 316.379C636.49 316.427 636.746 316.555 636.922 316.763L636.034 319.883C635.762 322.203 635.442 325.355 635.074 329.339C633.906 329.451 633.146 329.203 632.794 328.595C633.322 326.787 633.938 324.091 634.642 320.507ZM637.258 314.027C637.29 314.379 637.186 314.683 636.946 314.939C636.706 315.179 636.402 315.299 636.034 315.299C635.666 315.299 635.354 315.179 635.098 314.939C634.842 314.683 634.698 314.379 634.666 314.027C634.65 313.659 634.762 313.355 635.002 313.115C635.258 312.875 635.57 312.755 635.938 312.755C636.306 312.755 636.61 312.875 636.85 313.115C637.106 313.355 637.242 313.659 637.258 314.027ZM645.887 316.931C647.023 316.275 647.855 316.259 648.383 316.883C647.455 321.779 645.439 325.931 642.335 329.339C641.775 329.339 641.255 329.243 640.775 329.051C640.311 328.843 640.031 328.555 639.935 328.187C640.223 326.203 640.367 324.699 640.367 323.675C640.383 322.651 640.223 321.483 639.887 320.171L637.895 317.699C637.991 317.267 638.231 316.931 638.615 316.691C638.999 316.451 639.455 316.347 639.983 316.379C641.647 318.635 642.263 322.379 641.831 327.611L642.023 327.731C644.375 324.771 645.855 322.059 646.463 319.595L645.887 316.931ZM655.642 325.427L652.498 329.027C651.266 329.011 650.322 328.651 649.666 327.947C649.01 327.243 648.674 326.267 648.658 325.019C648.642 323.755 648.93 322.443 649.521 321.083C650.114 319.707 650.906 318.579 651.898 317.699C652.89 316.819 653.898 316.379 654.922 316.379C655.866 316.795 656.658 317.571 657.298 318.707L657.322 318.635C657.37 317.579 657.498 316.779 657.706 316.235C658.842 316.235 659.602 316.491 659.986 317.003L658.186 320.531C657.898 322.387 657.594 325.323 657.274 329.339C656.186 329.467 655.37 329.235 654.826 328.643L655.906 325.643L655.642 325.427ZM650.482 324.995C650.482 326.211 650.93 327.083 651.826 327.611C653.282 326.171 654.69 324.811 656.05 323.531L656.866 320.003C656.61 319.459 656.338 319.019 656.05 318.683C655.762 318.347 655.354 318.003 654.826 317.651C653.466 318.211 652.402 319.155 651.634 320.483C650.866 321.795 650.482 323.299 650.482 324.995ZM663.417 316.379L663.705 310.451C664.265 310.115 664.713 309.915 665.049 309.851C665.401 309.787 665.785 309.851 666.201 310.043L664.809 315.419C664.409 318.987 663.873 323.627 663.201 329.339C662.033 329.451 661.273 329.203 660.921 328.595C662.009 324.339 662.841 320.267 663.417 316.379ZM666.516 323.819C666.516 322.779 666.852 321.643 667.524 320.411C668.196 319.179 669.012 318.147 669.972 317.315C670.948 316.483 671.836 316.067 672.636 316.067C673.436 316.067 674.3 316.811 675.228 318.299C676.156 319.787 676.628 321.051 676.644 322.091C676.676 323.131 676.34 324.219 675.636 325.355C674.948 326.475 674.1 327.419 673.092 328.187C672.1 328.955 671.204 329.339 670.404 329.339C669.604 329.339 668.756 328.779 667.86 327.659C666.964 326.539 666.516 325.259 666.516 323.819ZM672.444 317.411C671.164 318.131 670.196 318.979 669.54 319.955C668.884 320.915 668.412 322.051 668.124 323.363C668.188 324.435 668.396 325.347 668.748 326.099C669.1 326.851 669.644 327.539 670.38 328.163C671.804 327.555 672.884 326.787 673.62 325.859C674.372 324.931 674.884 323.763 675.156 322.355C675.012 321.507 674.7 320.627 674.22 319.715C673.74 318.803 673.148 318.035 672.444 317.411ZM688.053 327.659L688.221 327.731C690.125 325.523 691.509 322.771 692.373 319.475L691.725 316.811C692.829 316.123 693.661 316.083 694.221 316.691C693.613 321.491 691.765 325.707 688.677 329.339C688.117 329.371 687.597 329.275 687.117 329.051C686.637 328.827 686.349 328.539 686.253 328.187C686.717 325.883 686.861 323.779 686.685 321.875L686.541 321.827C685.805 324.003 684.333 326.507 682.125 329.339C681.565 329.339 681.045 329.243 680.565 329.051C680.101 328.843 679.821 328.555 679.725 328.187C680.029 326.331 680.197 324.851 680.229 323.747C680.277 322.643 680.197 321.451 679.989 320.171L677.997 317.699C678.093 317.267 678.333 316.931 678.717 316.691C679.101 316.451 679.557 316.347 680.085 316.379C681.669 318.763 682.181 322.507 681.621 327.611L681.813 327.659C683.493 325.403 684.901 322.787 686.037 319.811L684.573 317.555C684.717 317.139 684.989 316.827 685.389 316.619C685.805 316.411 686.269 316.347 686.781 316.427C687.581 318.363 688.069 320.155 688.245 321.803C688.437 323.435 688.373 325.387 688.053 327.659ZM701.415 325.427L698.271 329.027C697.039 329.011 696.095 328.651 695.439 327.947C694.783 327.243 694.447 326.267 694.431 325.019C694.415 323.755 694.703 322.443 695.295 321.083C695.887 319.707 696.679 318.579 697.671 317.699C698.663 316.819 699.671 316.379 700.695 316.379C701.639 316.795 702.431 317.571 703.071 318.707L703.095 318.635C703.143 317.579 703.271 316.779 703.479 316.235C704.615 316.235 705.375 316.491 705.759 317.003L703.959 320.531C703.671 322.387 703.367 325.323 703.047 329.339C701.959 329.467 701.143 329.235 700.599 328.643L701.679 325.643L701.415 325.427ZM696.255 324.995C696.255 326.211 696.703 327.083 697.599 327.611C699.055 326.171 700.463 324.811 701.823 323.531L702.639 320.003C702.383 319.459 702.111 319.019 701.823 318.683C701.535 318.347 701.127 318.003 700.599 317.651C699.239 318.211 698.175 319.155 697.407 320.483C696.639 321.795 696.255 323.299 696.255 324.995Z" fill="black"/>
</g>
</g>
<path fill-rule="evenodd" clip-rule="evenodd" d="M502.208 191.753V192.713L502.4 200.201V207.881V219.305C502.4 222.121 502.336 223.945 502.208 224.777C502.144 226.377 501.792 227.945 501.152 229.481C500.512 230.825 500.192 231.849 500.192 232.553C500.192 233.577 501.024 234.249 502.688 234.569C504.096 234.825 505.76 235.017 507.68 235.145C509.6 235.209 511.808 235.241 514.304 235.241H516.224C521.28 235.241 525.344 234.729 528.416 233.705C532.192 232.425 535.232 230.697 537.536 228.521C539.904 226.345 541.728 223.977 543.008 221.417C544.288 218.857 545.12 216.233 545.504 213.545C545.952 210.793 546.176 208.265 546.176 205.961L546.272 204.905C546.272 196.265 543.904 189.513 539.168 184.649C534.496 179.721 527.808 177.257 519.104 177.257H516.128C510.56 177.257 506.048 177.545 502.592 178.121C500.864 178.377 500 179.049 500 180.137V180.809C500 180.937 500.352 181.897 501.056 183.689C501.76 185.289 502.112 186.921 502.112 188.585V190.505C502.112 191.017 502.144 191.433 502.208 191.753ZM536.096 204.521V207.401C536.096 210.217 535.776 212.937 535.136 215.561C534.496 218.185 533.44 220.521 531.968 222.569C530.56 224.553 528.704 226.153 526.4 227.369C524.16 228.521 521.44 229.097 518.24 229.097L517.664 229.193C514.976 229.193 513.184 228.905 512.288 228.329C511.456 227.753 511.04 226.793 511.04 225.449L510.944 222.857V221.033L510.848 220.361V213.929L510.944 211.337V196.937C510.944 189.769 511.04 185.801 511.232 185.033C511.616 183.625 513.504 182.921 516.896 182.921H518.72C521.792 182.921 524.416 183.561 526.592 184.841C528.832 186.057 530.656 187.689 532.064 189.737C533.472 191.721 534.496 194.025 535.136 196.649C535.776 199.209 536.096 201.833 536.096 204.521ZM576.959 213.065C583.423 204.105 586.655 198.697 586.655 196.841C586.655 195.881 586.271 195.177 585.503 194.729C584.863 194.345 583.007 194.153 579.935 194.153L574.655 193.961H562.751L561.695 193.865C559.263 193.865 557.663 194.249 556.895 195.017C556.127 195.785 555.743 197.097 555.743 198.953C555.743 200.745 556.575 201.641 558.239 201.641C558.815 201.641 560.191 201.353 562.367 200.777C564.607 200.201 566.719 199.913 568.703 199.913C572.799 199.913 574.847 200.329 574.847 201.161C574.847 201.929 571.583 206.889 565.055 216.041C558.463 225.129 555.167 230.473 555.167 232.073V232.937C555.167 233.961 555.903 234.633 557.375 234.953C557.695 235.017 558.911 235.081 561.023 235.145H570.143H579.743C584.991 235.145 587.615 233.769 587.615 231.017V230.057C587.615 228.009 586.847 226.985 585.311 226.985L579.839 228.521C577.855 229.097 575.263 229.385 572.063 229.385C568.863 229.385 567.263 228.873 567.263 227.849C567.263 227.081 570.495 222.153 576.959 213.065ZM598.355 234.281C599.187 234.921 600.179 235.241 601.331 235.241H603.443C605.363 235.241 606.963 234.889 608.243 234.185C609.523 233.481 610.163 232.553 610.163 231.401C610.163 230.377 609.907 229.353 609.395 228.329C608.051 226.025 607.379 223.241 607.379 219.977L607.091 214.121V204.713C607.091 202.537 607.059 200.809 606.995 199.529C606.995 198.249 606.867 197.289 606.611 196.649C606.419 196.009 606.067 195.593 605.555 195.401C605.043 195.209 604.275 195.113 603.251 195.113H601.811C598.483 195.113 596.819 195.913 596.819 197.513V198.377C596.819 198.441 597.107 199.209 597.683 200.681L598.067 201.545C598.387 202.441 598.611 203.689 598.739 205.289V221.513L598.547 224.681C598.547 225.961 598.323 227.273 597.875 228.617C597.363 230.281 597.107 231.401 597.107 231.977C597.107 232.809 597.523 233.577 598.355 234.281ZM604.211 177.353H602.771C601.235 177.353 600.115 177.769 599.411 178.601C598.707 179.433 598.355 180.169 598.355 180.809L598.163 182.153V182.345L598.355 183.689C598.355 184.521 598.675 185.289 599.315 185.993C600.019 186.633 600.627 186.953 601.139 186.953C601.715 186.953 602.131 186.985 602.387 187.049H603.731L604.499 186.953C605.715 186.953 606.675 186.505 607.379 185.609C608.147 184.713 608.531 183.689 608.531 182.537V181.577C608.531 180.169 608.083 179.113 607.187 178.409C606.355 177.705 605.363 177.353 604.211 177.353ZM635.134 206.441C634.238 207.209 633.598 207.593 633.214 207.593C631.678 207.593 630.91 205.193 630.91 200.393L630.814 195.209V186.569C630.814 182.089 630.59 179.273 630.142 178.121C629.438 176.457 628.062 175.625 626.014 175.625H624.958C623.678 175.625 622.59 175.849 621.694 176.297C620.862 176.809 620.446 177.321 620.446 177.833V178.793C620.446 178.921 620.606 179.529 620.926 180.617C621.054 181.129 621.15 181.673 621.214 182.249C621.342 182.761 621.47 183.369 621.598 184.073C621.79 185.417 621.886 189.129 621.886 195.209V203.561L621.79 206.345V207.785C621.79 208.233 621.758 208.713 621.694 209.225V217.289C621.694 219.081 621.63 220.937 621.502 222.857C621.374 224.713 621.182 226.665 620.926 228.713L620.83 229.673C620.83 232.553 621.95 233.993 624.19 233.993C629.182 233.993 631.678 232.329 631.678 229.001V228.329C631.678 227.945 631.646 227.465 631.582 226.889L631.39 224.681C631.39 222.569 631.71 220.809 632.35 219.401C633.054 217.929 633.886 217.193 634.846 217.193C636.19 217.193 638.43 219.689 641.566 224.681C643.038 226.985 644.19 228.809 645.022 230.153C645.918 231.433 646.686 232.393 647.326 233.033C647.966 233.609 648.574 233.961 649.15 234.089C649.79 234.217 650.59 234.281 651.55 234.281H652.51C655.006 234.281 656.254 233.705 656.254 232.553L649.534 223.145C644.99 216.873 642.718 213.321 642.718 212.489C642.718 210.761 644.51 207.817 648.094 203.657C651.678 199.625 653.47 197.417 653.47 197.033C653.47 195.625 651.902 194.921 648.766 194.921C647.23 194.921 646.078 195.209 645.31 195.785C644.542 196.297 643.71 197.161 642.814 198.377C642.43 198.889 641.758 199.657 640.798 200.681C639.902 201.641 638.942 202.665 637.918 203.753C636.958 204.777 636.03 205.673 635.134 206.441ZM701.348 215.369V213.929C701.348 212.199 701.181 210.524 700.847 208.905L692.005 216.927L691.94 217.577C691.94 221.353 691.044 224.457 689.252 226.889C687.46 229.321 685.156 230.537 682.34 230.537H681.572C680.346 230.537 679.179 230.214 678.071 229.569L673.033 234.14C673.311 234.288 673.598 234.431 673.892 234.569C676.196 235.657 678.564 236.201 680.996 236.201H682.436C685.124 236.201 687.844 235.529 690.596 234.185C694.308 232.457 697.028 229.865 698.756 226.409C700.484 222.953 701.348 219.273 701.348 215.369ZM667.116 228.706C666.53 227.801 666.036 226.875 665.636 225.929C664.996 224.265 664.548 222.601 664.292 220.937C664.1 219.273 664.004 217.769 664.004 216.425V214.313C664.004 212.393 664.196 210.505 664.58 208.649C665.028 206.729 665.668 204.969 666.5 203.369C667.332 201.705 668.42 200.201 669.764 198.857C671.108 197.513 672.708 196.425 674.564 195.593C676.996 194.441 679.428 193.865 681.86 193.865H683.972C686.852 193.865 689.38 194.441 691.556 195.593C693.732 196.681 695.524 198.153 696.932 200.009C697.186 200.329 697.428 200.658 697.659 200.995L691.17 206.882C690.767 205.555 690.224 204.352 689.54 203.273C687.94 200.585 685.732 199.241 682.916 199.241H682.052C679.3 199.241 676.996 200.585 675.14 203.273C673.284 205.961 672.356 209.545 672.356 214.025V216.905C672.42 217.225 672.452 217.513 672.452 217.769V218.249C672.452 219.785 672.676 221.289 673.124 222.761C673.168 222.886 673.212 223.011 673.258 223.134L667.116 228.706Z" fill="black"/>
<path d="M661.825 244.526L660.847 245.637C657.158 244.41 655.87 241.587 655.687 240.328C656.062 239.793 656.999 239.119 657.421 238.849C658.482 236.879 660.576 238.332 661.491 239.305C664.88 242.556 663.125 244.14 661.825 244.526Z" fill="#B79D53"/>
<path d="M638.449 263.665C634.877 266.829 631.329 268.088 630.002 268.323C631.668 264.462 634.347 261.69 635.478 260.787C636.377 262.693 637.833 263.5 638.449 263.665Z" fill="#D4A27B"/>
<path d="M642.238 260.533L638.355 263.799C636.813 263.039 635.656 261.577 635.27 260.941C635.822 259.811 638.548 257.351 639.842 256.263C639.73 255.626 639.916 255.35 640.023 255.292L655.687 240.328C656.356 243.589 659.406 245.226 660.847 245.637L644.433 259.677C644.632 259.736 643.052 260.272 642.238 260.533Z" fill="#B79D53"/>
<defs>
<filter id="filter0_di_114:2" x="0" y="0" width="1010" height="470.054" filterUnits="userSpaceOnUse" color-interpolation-filters="sRGB">
<feFlood flood-opacity="0" result="BackgroundImageFix"/>
<feColorMatrix in="SourceAlpha" type="matrix" values="0 0 0 0 0 0 0 0 0 0 0 0 0 0 0 0 0 0 127 0" result="hardAlpha"/>
<feOffset dx="6" dy="4"/>
<feGaussianBlur stdDeviation="2"/>
<feComposite in2="hardAlpha" operator="out"/>
<feColorMatrix type="matrix" values="0 0 0 0 0 0 0 0 0 0 0 0 0 0 0 0 0 0 0.25 0"/>
<feBlend mode="normal" in2="BackgroundImageFix" result="effect1_dropShadow_114:2"/>
<feBlend mode="normal" in="SourceGraphic" in2="effect1_dropShadow_114:2" result="shape"/>
<feColorMatrix in="SourceAlpha" type="matrix" values="0 0 0 0 0 0 0 0 0 0 0 0 0 0 0 0 0 0 127 0" result="hardAlpha"/>
<feOffset dx="6" dy="4"/>
<feGaussianBlur stdDeviation="2"/>
<feComposite in2="hardAlpha" operator="arithmetic" k2="-1" k3="1"/>
<feColorMatrix type="matrix" values="0 0 0 0 0 0 0 0 0 0 0 0 0 0 0 0 0 0 0.25 0"/>
<feBlend mode="normal" in2="shape" result="effect2_innerShadow_114:2"/>
</filter>
<filter id="filter1_i_114:2" x="75.8929" y="26.7858" width="409.298" height="425.017" filterUnits="userSpaceOnUse" color-interpolation-filters="sRGB">
<feFlood flood-opacity="0" result="BackgroundImageFix"/>
<feBlend mode="normal" in="SourceGraphic" in2="BackgroundImageFix" result="shape"/>
<feColorMatrix in="SourceAlpha" type="matrix" values="0 0 0 0 0 0 0 0 0 0 0 0 0 0 0 0 0 0 127 0" result="hardAlpha"/>
<feOffset dx="6" dy="4"/>
<feGaussianBlur stdDeviation="2"/>
<feComposite in2="hardAlpha" operator="arithmetic" k2="-1" k3="1"/>
<feColorMatrix type="matrix" values="0 0 0 0 0 0 0 0 0 0 0 0 0 0 0 0 0 0 0.25 0"/>
<feBlend mode="normal" in2="shape" result="effect1_innerShadow_114:2"/>
</filter>
<filter id="filter2_d_114:2" x="500.456" y="309.827" width="215.303" height="27.5461" filterUnits="userSpaceOnUse" color-interpolation-filters="sRGB">
<feFlood flood-opacity="0" result="BackgroundImageFix"/>
<feColorMatrix in="SourceAlpha" type="matrix" values="0 0 0 0 0 0 0 0 0 0 0 0 0 0 0 0 0 0 127 0" result="hardAlpha"/>
<feOffset dx="6" dy="4"/>
<feGaussianBlur stdDeviation="2"/>
<feComposite in2="hardAlpha" operator="out"/>
<feColorMatrix type="matrix" values="0 0 0 0 0 0 0 0 0 0 0 0 0 0 0 0 0 0 0.25 0"/>
<feBlend mode="normal" in2="BackgroundImageFix" result="effect1_dropShadow_114:2"/>
<feBlend mode="normal" in="SourceGraphic" in2="effect1_dropShadow_114:2" result="shape"/>
</filter>
</defs>
</svg>
